<svg width="296" height="67" viewBox="0 0 296 67" fill="none" xmlns="http://www.w3.org/2000/svg">
<path d="M96 10.5009C96 8.87967 96.2366 7.45499 96.7099 6.22682C97.2068 4.97409 97.8812 3.93014 98.7331 3.09499C99.6086 2.25983 100.65 1.63347 101.857 1.21589C103.063 0.79831 104.4 0.58952 105.868 0.58952C107.311 0.58952 108.636 0.79831 109.843 1.21589C111.05 1.63347 112.091 2.25983 112.967 3.09499C113.842 3.93014 114.516 4.97409 114.99 6.22682C115.463 7.45499 115.7 8.87967 115.7 10.5009V23.9862C115.7 25.6073 115.463 27.0443 114.99 28.297C114.516 29.5252 113.842 30.5569 112.967 31.392C112.091 32.2272 111.05 32.8535 109.843 33.2711C108.636 33.6887 107.311 33.8975 105.868 33.8975C104.4 33.8975 103.063 33.6887 101.857 33.2711C100.65 32.8535 99.6086 32.2272 98.7331 31.392C97.8812 30.5569 97.2068 29.5252 96.7099 28.297C96.2366 27.0443 96 25.6073 96 23.9862V10.5009ZM119.285 3.57397C119.285 2.39493 119.64 1.51065 120.349 0.921126C121.059 0.307042 121.876 0 122.799 0C123.248 0 123.686 0.0859715 124.112 0.257914C124.538 0.405296 124.905 0.626366 125.212 0.921126C125.544 1.21589 125.804 1.58434 125.993 2.02648C126.206 2.46862 126.313 2.98445 126.313 3.57397V12.8958H127.484C128.028 12.8958 128.478 12.994 128.833 13.1905C129.188 13.387 129.472 13.645 129.685 13.9643C129.898 14.259 130.051 14.6029 130.146 14.996C130.241 15.3644 130.288 15.7329 130.288 16.1013C130.288 16.4698 130.241 16.8505 130.146 17.2435C130.051 17.612 129.898 17.9558 129.685 18.2752C129.472 18.5699 129.176 18.8156 128.797 19.0121C128.442 19.2086 128.005 19.3068 127.484 19.3068H126.313V34.5975H119.285V3.57397ZM102.957 24.1704C102.957 25.4231 103.229 26.3565 103.773 26.9706C104.318 27.5601 105.016 27.8549 105.868 27.8549C106.719 27.8549 107.418 27.5601 107.962 26.9706C108.506 26.3565 108.778 25.4231 108.778 24.1704V10.3166C108.778 9.06389 108.506 8.14277 107.962 7.55324C107.418 6.93916 106.719 6.63212 105.868 6.63212C105.016 6.63212 104.318 6.93916 103.773 7.55324C103.229 8.14277 102.957 9.06389 102.957 10.3166V24.1704Z" fill="white"/>
<path d="M131.495 10.5745C131.495 8.95336 131.743 7.52868 132.24 6.30051C132.737 5.04778 133.423 4.00383 134.299 3.16868C135.198 2.30896 136.263 1.67031 137.494 1.25273C138.724 0.810591 140.085 0.58952 141.575 0.58952C143.066 0.58952 144.427 0.810591 145.657 1.25273C146.888 1.67031 147.953 2.29668 148.852 3.13183C149.751 3.96699 150.449 5.01093 150.946 6.26367C151.443 7.5164 151.691 8.95336 151.691 10.5745V23.9125C151.691 25.5336 151.443 26.9706 150.946 28.2233C150.449 29.4761 149.751 30.52 148.852 31.3552C147.976 32.1903 146.911 32.8167 145.657 33.2343C144.427 33.6764 143.078 33.8975 141.611 33.8975C140.12 33.8975 138.759 33.6764 137.529 33.2343C136.299 32.8167 135.234 32.1903 134.334 31.3552C133.435 30.52 132.737 29.4761 132.24 28.2233C131.743 26.9706 131.495 25.5336 131.495 23.9125V10.5745ZM138.523 24.0598C138.523 25.3126 138.807 26.2583 139.375 26.8969C139.966 27.511 140.7 27.818 141.575 27.818C142.451 27.818 143.185 27.511 143.776 26.8969C144.368 26.2583 144.663 25.3126 144.663 24.0598V10.4272C144.663 9.17443 144.368 8.22874 143.776 7.59009C143.185 6.95144 142.451 6.6444 141.575 6.66896C140.7 6.69352 139.966 7.02513 139.375 7.66378C138.807 8.27786 138.523 9.19899 138.523 10.4272V24.0598ZM155.738 34.5975V3.64766C155.738 2.44406 156.093 1.53521 156.803 0.921126C157.513 0.307042 158.341 0 159.287 0C160.234 0 161.062 0.307042 161.772 0.921126C162.482 1.53521 162.837 2.44406 162.837 3.64766V34.5975H155.738Z" fill="white"/>
<path d="M169.084 15.4381C170.456 15.4381 171.604 15.2784 172.527 14.9591C173.473 14.6398 174.231 14.1976 174.799 13.6327C175.367 13.0677 175.769 12.4168 176.005 11.6799C176.266 10.943 176.396 10.1447 176.396 9.28496V7.77431C176.396 7.25848 176.136 7.00057 175.615 7.00057H169.474C169.001 7.00057 168.587 6.91459 168.232 6.74265C167.901 6.57071 167.629 6.34964 167.416 6.07944C167.203 5.78468 167.037 5.46535 166.919 5.12147C166.824 4.77758 166.777 4.43369 166.777 4.0898C166.777 3.77048 166.824 3.43887 166.919 3.09499C167.013 2.7511 167.167 2.44406 167.38 2.17386C167.593 1.8791 167.865 1.64575 168.197 1.4738C168.552 1.30186 168.977 1.21589 169.474 1.21589H177.958C178.881 1.21589 179.65 1.31414 180.265 1.51065C180.904 1.70716 181.401 2.0142 181.756 2.43178C182.134 2.82479 182.395 3.31606 182.537 3.90558C182.702 4.4951 182.785 5.19516 182.785 6.00575V7.88485H185.057V3.20552C185.057 2.17386 185.352 1.40011 185.944 0.884282C186.536 0.343887 187.246 0.0736892 188.074 0.0736892C188.878 0.0736892 189.588 0.343887 190.203 0.884282C190.819 1.40011 191.126 2.17386 191.126 3.20552V20.3016H185.057V13.5958H182.111C181.306 16.003 179.863 17.8699 177.78 19.1963C175.722 20.5227 173.19 21.2105 170.184 21.2596C169.995 21.2596 169.806 21.2596 169.616 21.2596C169.451 21.2596 169.273 21.2473 169.084 21.2228C168.256 21.1245 167.57 20.7929 167.025 20.228C166.481 19.663 166.244 18.9138 166.315 17.9804C166.363 17.2435 166.623 16.6417 167.096 16.175C167.57 15.6837 168.232 15.4381 169.084 15.4381ZM187.328 24.1704C187.328 24.2195 187.316 24.2686 187.293 24.3178C187.293 24.3669 187.293 24.416 187.293 24.4651C188.665 24.416 190.05 24.5757 191.446 24.9441C192.866 25.288 194.167 25.8653 195.35 26.6758C196.533 27.4864 197.539 28.5427 198.367 29.8445C199.195 31.1464 199.74 32.7307 200 34.5975H192.724C192.511 33.7869 192.144 33.0623 191.623 32.4237C191.126 31.8096 190.511 31.2938 189.777 30.8762C189.068 30.434 188.263 30.127 187.364 29.9551C186.488 29.7831 185.565 29.7586 184.595 29.8814C183.72 30.7411 182.702 31.5148 181.543 32.2026C180.383 32.8904 179.176 33.4553 177.922 33.8975C176.668 34.3396 175.414 34.6467 174.16 34.8186C172.906 35.0151 171.746 35.052 170.681 34.9291C169.829 34.8309 169.119 34.4747 168.552 33.8606C167.984 33.2466 167.723 32.4728 167.771 31.5394C167.818 30.6306 168.126 29.9428 168.694 29.4761C169.285 29.0094 169.995 28.7883 170.823 28.8129C171.628 28.8374 172.491 28.7515 173.414 28.5549C174.337 28.3584 175.236 28.0514 176.112 27.6338C176.987 27.2162 177.78 26.7004 178.49 26.0863C179.2 25.4722 179.732 24.7476 180.087 23.9125C180.584 22.7334 181.152 21.9351 181.791 21.5175C182.43 21.0754 183.211 20.8789 184.134 20.928C185.057 20.9771 185.826 21.2596 186.441 21.7754C187.056 22.2667 187.352 23.065 187.328 24.1704ZM192.653 3.13183C192.653 2.10017 192.96 1.32642 193.575 0.810592C194.214 0.270197 194.948 0 195.776 0C196.581 0 197.302 0.270197 197.941 0.810592C198.58 1.32642 198.9 2.10017 198.9 3.13183V21.7754H192.653V3.13183Z" fill="white"/>
<path d="M88.6687 54.864L89.1807 53.536L83.9007 51.712C84.1087 51.264 84.2207 50.784 84.2207 50.256V49.696H82.7167V50.256C82.7167 51.584 81.1487 52.704 77.5967 53.488L78.0127 54.864C80.3007 54.368 81.9007 53.728 82.8927 52.912L88.6687 54.864ZM76.4127 56.912H90.3647V55.616H76.4127V56.912ZM88.6687 61.936V58.144H78.0447V59.408H87.0687V60.672H78.1247V64.544H89.0527V63.232H79.7247V61.936H88.6687ZM102.721 64.464H104.305V49.616H102.721V64.464ZM98.1446 52.24V52.416C98.1446 55.552 96.0966 58.96 92.2566 61.424L93.2166 62.688C97.3446 59.968 99.7446 56.304 99.7446 52.096V50.784H92.5766V52.24H98.1446ZM114.532 59.104H119.316V57.696H110.068V55.552H119.012V50.608H108.388V52.048H117.412V54.144H108.468V59.104H112.948V61.888H106.756V63.36H120.708V61.888H114.532V59.104ZM130.056 55.856C132.584 55.856 134.248 54.752 134.248 52.8C134.248 50.88 132.584 49.776 130.056 49.776H127.752C125.24 49.776 123.56 50.88 123.56 52.8C123.56 54.752 125.24 55.856 127.752 55.856H130.056ZM129.784 51.168C131.624 51.168 132.664 51.776 132.664 52.816C132.664 53.84 131.624 54.48 129.784 54.48H128.04C126.2 54.48 125.16 53.856 125.16 52.816C125.16 51.776 126.2 51.168 128.04 51.168H129.784ZM121.928 58.816H128.12V61.44H129.704V58.816H135.88V57.344H121.928V58.816ZM123.72 60.16V64.464H134.408V62.976H125.32V60.16H123.72ZM142.734 50.32V56.736H153.278V50.32H142.734ZM144.334 55.328V51.712H151.678V55.328H144.334ZM141.022 58.848V60.304H144.574V64.64H146.174V60.304H149.838V64.64H151.438V60.304H154.974V58.848H141.022ZM167.314 64.464H168.914V49.616H167.314V64.464ZM161.826 52.24H165.17V50.784H156.946V52.24H160.258V52.864C160.258 56.288 158.866 58.768 156.354 61.376L157.49 62.448C158.962 60.928 160.066 59.408 160.802 57.776L164.594 62.288L165.762 61.232L161.41 56.096C161.682 55.072 161.826 54 161.826 52.864V52.24ZM182.502 54.464V56.864H184.102V49.616H182.502V53.056H179.382C179.622 52.448 179.75 51.792 179.75 51.072V50.24H172.326V51.568H178.342C178.326 51.968 178.23 52.352 178.07 52.704C176.502 52.864 173.83 52.976 172.358 52.976H172.022L172.07 54.176H172.438C173.782 54.192 175.638 54.096 177.094 53.952C176.038 54.88 174.342 55.616 172.07 56.096L172.454 57.408C175.222 56.784 177.27 55.824 178.486 54.464H182.502ZM175.878 61.776H184.102V57.792H174.198V59.12H182.502V60.464H174.278V64.544H184.646V63.184H175.878V61.776ZM201.884 54.144V57.712H203.404V49.616H201.884V52.736H200.044V49.776H198.556V57.568H200.044V54.144H201.884ZM197.9 56.208L194.604 53.36C194.812 52.656 194.924 51.904 194.924 51.104V50.096H193.388V51.104C193.388 53.136 192.428 54.944 190.332 56.48L191.244 57.68C192.46 56.8 193.372 55.856 193.996 54.768L196.972 57.36L197.9 56.208ZM196.684 58.496C194.508 58.496 193.132 59.776 193.132 61.552C193.132 63.344 194.508 64.624 196.684 64.624H200.044C202.22 64.624 203.596 63.344 203.596 61.552C203.596 59.776 202.22 58.496 200.044 58.496H196.684ZM196.94 63.184C195.452 63.184 194.716 62.496 194.716 61.552C194.716 60.608 195.452 59.92 196.94 59.92H199.788C201.276 59.92 202.012 60.608 202.012 61.552C202.012 62.496 201.276 63.184 199.788 63.184H196.94ZM210.783 50.64V49.44H209.167V50.64H205.663V51.824H214.271V50.64H210.783ZM217.663 49.616H216.063V57.952H217.663V55.088H219.823V53.648H217.663V49.616ZM214.863 56.416C213.599 56.576 212.175 56.688 210.863 56.768V56.016C212.447 55.872 213.615 55.312 213.615 54.24V54.128C213.615 52.864 212.015 52.304 209.999 52.304C207.935 52.304 206.335 52.864 206.335 54.128V54.24C206.335 55.344 207.567 55.904 209.263 56.016V56.848C208.783 56.864 208.351 56.864 207.967 56.864H205.407L205.471 58.08H207.839C209.951 58.08 212.783 57.904 215.007 57.616L214.863 56.416ZM207.903 54.16C207.903 53.712 208.799 53.44 209.999 53.44C211.151 53.44 212.063 53.712 212.063 54.16V54.224C212.063 54.672 211.151 54.944 209.999 54.944C208.799 54.944 207.903 54.672 207.903 54.224V54.16ZM217.663 62.272V58.88H207.919V60.112H216.111V61.056H207.999V64.544H218.207V63.28H209.551V62.272H217.663Z" fill="white"/>
</svg>
