<svg width="106" height="75" viewBox="0 0 106 75" fill="none" xmlns="http://www.w3.org/2000/svg">
<g clip-path="url(#clip0_2828_57485)">
<path d="M18.4045 27.3688C17.3254 27.0122 16.1953 27.0632 15.2181 27.5216C14.241 27.98 13.4762 28.8543 13.1109 29.8815L10.9526 36.036C10.4428 37.5725 10.8507 39.2194 11.9808 40.3484C11.9808 40.3484 16.2972 44.7117 15.1671 49.3212C14.19 53.3195 11.5219 55.6794 7.21395 56.3501C5.72698 56.5538 4.49491 57.6319 3.9766 59.0156L2.12425 64.1939C1.76738 65.2211 1.81836 66.3501 2.2772 67.3263C2.58309 67.9375 2.99944 68.5063 3.56024 68.8628C3.86613 69.1175 4.22301 69.2703 4.58838 69.4231C5.76946 69.8306 34.5658 79.7796 65.7327 72.0886C95.9226 64.8051 104.233 55.0598 105.108 53.9817C106.187 52.598 106.289 50.6964 105.363 49.2618L101.565 43.2092C100.485 41.4689 98.2762 40.7983 96.4324 41.6727C95.6082 42.0292 90.9433 43.6251 86.7288 37.7253C84.1117 33.8798 87.604 29.8815 88.0119 29.4146C89.4988 27.7762 89.4479 25.2126 87.8589 23.6676L82.7777 18.7949C81.3927 17.4621 79.1835 17.3093 77.5946 18.4384C77.2887 18.6421 48.6963 38.6421 18.3025 27.4621L18.4045 27.3603V27.3688Z" fill="#8571FF"/>
<path d="M8.24208 27.0119C7.11198 26.961 6.03287 27.2666 5.21716 27.9881C4.34196 28.7097 3.88313 29.7284 3.78116 30.8065L3.27134 37.3175C3.16938 38.9049 3.99359 40.4499 5.3786 41.2139C5.42958 41.2139 10.6637 44.3464 10.7657 49.0577C10.8167 53.107 8.86237 56.0866 4.86028 57.8268C3.52625 58.3871 2.60008 59.7284 2.44714 61.2139L1.9883 66.6978C1.93732 67.7759 2.24321 68.854 2.96545 69.6689C3.42429 70.1783 3.94261 70.5942 4.60537 70.798C4.96225 70.9508 5.32762 71.0526 5.73547 71.0526C7.01852 71.1545 37.4123 73.4126 65.5458 58.0221C92.8551 43.3022 98.4037 31.7657 98.9645 30.4839C99.6358 28.8965 99.2194 27.0459 97.9873 25.8659L92.7532 20.9932C91.2662 19.5586 88.955 19.5077 87.3661 20.7895C86.6438 21.3498 82.5398 24.0747 76.9998 19.4567C73.4565 16.4347 75.8187 11.6639 76.0736 11.0951C77.1527 9.14263 76.4305 6.68083 74.4847 5.61122L68.3243 2.17319C66.5824 1.24789 64.4242 1.61292 63.1921 3.14942C62.9372 3.40409 40.3947 30.0764 8.15712 26.9949H8.25908L8.24208 27.0119Z" fill="white"/>
<path d="M0.492827 69.4231C0.135953 68.5487 -0.0764714 67.5725 0.0339895 66.6048L0.492827 61.1209C0.645773 59.0156 1.9798 57.1735 3.93411 56.2992C7.27343 54.8645 8.86237 52.5046 8.81138 49.1175C8.7604 45.4757 4.50341 42.8102 4.29098 42.7083C2.33668 41.6302 1.21507 39.474 1.36802 37.2245L1.87784 30.7134C2.03078 29.126 2.75303 27.6914 3.93411 26.7151C5.11519 25.7389 6.65315 25.2296 8.1911 25.3824C39.0947 28.3026 60.864 3.17523 61.7307 2.14807C63.5235 -0.0590604 66.557 -0.619332 69.0211 0.764369L75.1814 4.2024C77.9514 5.68797 78.9286 9.22787 77.4926 11.9443C77.1357 12.6659 75.4873 16.1464 77.9514 18.2516C82.4718 21.9953 85.6497 19.9919 86.168 19.5844C88.4282 17.7423 91.7081 17.8442 93.8153 19.8391L99.0495 24.7117C100.842 26.401 101.412 29.0241 100.434 31.2228C99.8737 32.5046 94.1212 44.508 66.2426 59.5844C37.5482 75.2805 6.7976 72.9206 5.51455 72.8187C5.05571 72.8187 4.58838 72.7168 4.18052 72.564C4.07856 72.564 4.02758 72.5131 3.92561 72.5131C3.05042 72.1566 2.28569 71.5878 1.56345 70.8238C1.20657 70.4163 0.900683 69.9494 0.688258 69.4401H0.48433L0.492827 69.4231ZM4.96225 69.1175C5.06421 69.1684 5.11519 69.2194 5.21716 69.2194C5.3701 69.3212 5.57403 69.3722 5.82894 69.3722C7.061 69.474 36.7835 71.783 64.6621 56.5538C92.0224 41.783 97.1546 30.3484 97.3671 29.8306C97.7749 28.9053 97.52 27.8272 96.8063 27.165L91.5721 22.2924C90.6969 21.469 89.3629 21.418 88.3857 22.2414C87.4596 22.963 82.3784 26.2397 75.8612 20.8068C72.4199 17.8357 73.0402 13.3195 74.5781 10.3399C75.1984 9.15995 74.782 7.72532 73.6519 7.10562L67.4916 3.6676C66.5145 3.10732 65.2314 3.31106 64.5177 4.22787C63.5405 5.3569 40.7006 31.7661 8.04665 28.6931C7.43487 28.6421 6.81459 28.8459 6.30477 29.2533C5.84593 29.6608 5.48056 30.2296 5.48056 30.8917L4.97074 37.3518C4.91976 38.2771 5.3786 39.143 6.20281 39.6099C7.43487 40.3314 12.3631 43.8628 12.4651 48.9477C12.5671 53.7695 10.2049 57.3603 5.58253 59.3552C4.75832 59.7117 4.19752 60.4842 4.14653 61.3586L3.6877 66.8425C3.58573 67.5131 3.78966 68.1243 4.20601 68.5827C4.40994 68.8374 4.71583 69.0411 4.97924 69.1939V69.092L4.96225 69.1175Z" fill="#572DFF"/>
<path d="M30.5212 67.9369C30.5212 67.9369 31.6513 64.9149 32.3141 60.3478C32.467 59.4225 33.3422 58.7604 34.2684 58.9132C35.1946 59.066 35.8573 59.9403 35.7044 60.8656C34.9821 65.7383 33.7501 69.0235 33.6991 69.1763C33.3422 70.0507 32.3651 70.5091 31.4899 70.1526C31.031 69.9488 30.6657 69.6432 30.5127 69.2273C30.3598 68.8707 30.3598 68.4038 30.5127 67.9454L30.5212 67.9369ZM19.0758 27.6738C18.8208 27.1135 18.8718 26.4938 19.2287 25.9845C19.7385 25.212 20.8176 25.0082 21.5909 25.577C24.004 27.2663 26.1622 29.1678 28.0061 31.2731C28.6179 31.9947 28.5669 33.0643 27.8531 33.684C27.1309 34.3037 26.0603 34.2442 25.44 33.5312C23.8001 31.6296 21.8458 29.8894 19.6366 28.3529C19.3816 28.1492 19.1777 27.8945 19.0673 27.6313V27.6823L19.0758 27.6738ZM32.5775 50.3393C32.4755 50.1865 32.4245 49.9828 32.4245 49.83C32.1186 47.1644 31.4984 44.6517 30.6317 42.2918C30.3258 41.4174 30.7846 40.3903 31.6598 40.0846C32.535 39.779 33.5036 40.2374 33.869 41.1118C34.8462 43.7264 35.5089 46.5447 35.8743 49.4734C35.9763 50.3987 35.3135 51.2646 34.3873 51.375C33.6141 51.4259 32.9513 51.0184 32.6455 50.3478H32.5945L32.5775 50.3393Z" fill="#572DFF"/>
</g>
<defs>
<clipPath id="clip0_2828_57485">
<rect width="106" height="75" fill="white"/>
</clipPath>
</defs>
</svg>
