<svg width="60" height="17" viewBox="0 0 60 17" fill="none" xmlns="http://www.w3.org/2000/svg">
<path d="M0 1.5C0 0.947715 0.447715 0.5 1 0.5H58V16.5H0.999999C0.447714 16.5 0 16.0523 0 15.5V1.5Z" fill="white"/>
<path d="M11.9637 7.12V3.74H10.6937V13.08H11.9637V8.28H13.3237V7.12H11.9637ZM6.92371 4.14C5.53371 4.14 4.41371 5.02 4.41371 7.3V8.73C4.41371 11.01 5.53371 11.89 6.92371 11.89C8.29371 11.89 9.41371 11.01 9.41371 8.73V7.3C9.41371 5.02 8.29371 4.14 6.92371 4.14ZM8.13371 8.73C8.13371 10.23 7.57371 10.73 6.92371 10.73C6.24371 10.73 5.69371 10.23 5.69371 8.73V7.3C5.69371 5.8 6.24371 5.3 6.92371 5.3C7.57371 5.3 8.13371 5.8 8.13371 7.3V8.73ZM21.9761 13.08V3.74H20.6961V13.08H21.9761ZM16.7361 11.89C18.1261 11.89 19.2761 11.01 19.2761 8.73V7.3C19.2761 5.02 18.1261 4.14 16.7361 4.14C15.3361 4.14 14.1861 5.02 14.1861 7.3V8.73C14.1861 11.01 15.3361 11.89 16.7361 11.89ZM16.7361 10.73C16.0461 10.73 15.4661 10.23 15.4661 8.73V7.3C15.4661 5.8 16.0461 5.3 16.7361 5.3C17.4261 5.3 17.9961 5.8 17.9961 7.3V8.73C17.9961 10.23 17.4261 10.73 16.7361 10.73ZM30.4286 3.75V9.54H31.6386V3.75H30.4286ZM28.4486 7.19V8.68H29.6186V3.84H28.4486V6.06H27.3286C27.4386 5.68 27.4886 5.26 27.4886 4.8V4.19H23.7686V5.35H26.2286C26.1186 6.4 25.2286 7.4 23.4886 8.26L24.1386 9.31C25.3386 8.72 26.2586 8.06 26.8286 7.19H28.4486ZM28.7686 10.59C28.9286 10.25 29.0086 9.9 29.0086 9.53V9.13H27.6986V9.53C27.6986 10.54 26.4486 11.39 24.4986 12.04L24.9686 13.18C26.2486 12.79 27.2986 12.25 28.0086 11.59L31.5986 13.13L32.1086 11.99L28.7686 10.59ZM42.9014 3.74H41.6214V10.65H42.9014V7.11H44.2514V5.95H42.9014V3.74ZM40.7714 7.76C39.6214 7.93 38.4414 8.02 37.4814 8.02H36.7514V5.31H40.1614V4.19H35.4914V9.15H37.2614C38.5214 9.15 39.8014 9.04 40.9114 8.85L40.7714 7.76ZM36.7514 10.06V13.08H43.3314V11.92H38.0314V10.06H36.7514ZM49.8439 7.32H52.4939V6.26H47.2039V4.98H52.3939V3.92H45.9239V7.32H48.5639V8.14H44.8039V9.23H53.6039V8.14H49.8439V7.32ZM51.3039 11.19V13.18H52.5839V10.01H45.8339V11.19H51.3039Z" fill="#121016"/>
<path fill-rule="evenodd" clip-rule="evenodd" d="M60 0.5H58V16.5H60V15.6429C59.1716 15.6429 58.5 15.0672 58.5 14.3571C58.5 13.6471 59.1716 13.0714 60 13.0714V11.7857C59.1716 11.7857 58.5 11.2101 58.5 10.5C58.5 9.78992 59.1716 9.21429 60 9.21429V7.92857C59.1716 7.92857 58.5 7.35294 58.5 6.64286C58.5 5.93278 59.1716 5.35714 60 5.35714V4.07143C59.1716 4.07143 58.5 3.49579 58.5 2.78571C58.5 2.07563 59.1716 1.5 60 1.5V0.5Z" fill="white"/>
</svg>
