<svg width="177" height="39" viewBox="0 0 177 39" fill="none" xmlns="http://www.w3.org/2000/svg">
<path d="M61.1143 11.7009C61.1143 9.89448 61.378 8.30699 61.9053 6.93846C62.459 5.54255 63.2105 4.3793 64.1597 3.4487C65.1354 2.5181 66.2955 1.82015 67.6403 1.35485C68.985 0.889545 70.4748 0.656894 72.1096 0.656894C73.718 0.656894 75.1946 0.889545 76.5393 1.35485C77.8841 1.82015 79.0443 2.5181 80.0199 3.4487C80.9955 4.3793 81.747 5.54255 82.2743 6.93846C82.8017 8.30699 83.0653 9.89448 83.0653 11.7009V26.7274C83.0653 28.5339 82.8017 30.1351 82.2743 31.531C81.747 32.8995 80.9955 34.0491 80.0199 34.9797C79.0443 35.9103 77.8841 36.6082 76.5393 37.0735C75.1946 37.5388 73.718 37.7715 72.1096 37.7715C70.4748 37.7715 68.985 37.5388 67.6403 37.0735C66.2955 36.6082 65.1354 35.9103 64.1597 34.9797C63.2105 34.0491 62.459 32.8995 61.9053 31.531C61.378 30.1351 61.1143 28.5339 61.1143 26.7274V11.7009ZM87.06 3.98243C87.06 2.66864 87.4555 1.68329 88.2466 1.0264C89.0376 0.342133 89.9473 0 90.9756 0C91.4766 0 91.9644 0.0957968 92.439 0.28739C92.9136 0.451615 93.3223 0.697951 93.6651 1.0264C94.0343 1.35485 94.3243 1.76541 94.5353 2.25808C94.7726 2.75075 94.8912 3.32553 94.8912 3.98243V14.3696H96.1964C96.8029 14.3696 97.3039 14.4791 97.6994 14.698C98.0949 14.917 98.4113 15.2044 98.6486 15.5602C98.8859 15.8887 99.0573 16.2718 99.1628 16.7098C99.2682 17.1203 99.321 17.5309 99.321 17.9415C99.321 18.352 99.2682 18.7763 99.1628 19.2142C99.0573 19.6247 98.8859 20.0079 98.6486 20.3638C98.4113 20.6922 98.0817 20.9659 97.6598 21.1849C97.2643 21.4038 96.7765 21.5133 96.1964 21.5133H94.8912V38.5515H87.06V3.98243ZM68.8664 26.9327C68.8664 28.3286 69.1696 29.3687 69.7761 30.053C70.3825 30.7099 71.1604 31.0383 72.1096 31.0383C73.0588 31.0383 73.8367 30.7099 74.4431 30.053C75.0496 29.3687 75.3528 28.3286 75.3528 26.9327V11.4957C75.3528 10.0998 75.0496 9.07337 74.4431 8.41647C73.8367 7.73221 73.0588 7.39007 72.1096 7.39007C71.1604 7.39007 70.3825 7.73221 69.7761 8.41647C69.1696 9.07337 68.8664 10.0998 68.8664 11.4957V26.9327Z" fill="#572DFF"/>
<path d="M100.666 11.7831C100.666 9.9766 100.943 8.3891 101.496 7.02057C102.05 5.62467 102.815 4.46141 103.79 3.53081C104.792 2.57284 105.979 1.8612 107.35 1.3959C108.721 0.90323 110.237 0.656894 111.898 0.656894C113.559 0.656894 115.076 0.90323 116.447 1.3959C117.818 1.8612 119.004 2.55915 120.006 3.48976C121.008 4.42036 121.786 5.58361 122.34 6.97951C122.894 8.37542 123.17 9.9766 123.17 11.7831V26.6453C123.17 28.4518 122.894 30.053 122.34 31.4489C121.786 32.8448 121.008 34.008 120.006 34.9386C119.031 35.8692 117.844 36.5672 116.447 37.0325C115.076 37.5251 113.573 37.7715 111.938 37.7715C110.277 37.7715 108.761 37.5251 107.389 37.0325C106.018 36.5672 104.832 35.8692 103.83 34.9386C102.828 34.008 102.05 32.8448 101.496 31.4489C100.943 30.053 100.666 28.4518 100.666 26.6453V11.7831ZM108.497 26.8095C108.497 28.2054 108.813 29.2592 109.446 29.9708C110.105 30.6551 110.923 30.9972 111.898 30.9972C112.874 30.9972 113.691 30.6551 114.351 29.9708C115.01 29.2592 115.339 28.2054 115.339 26.8095V11.6188C115.339 10.2229 115.01 9.16916 114.351 8.45753C113.691 7.74589 112.874 7.40376 111.898 7.43113C110.923 7.4585 110.105 7.828 109.446 8.53964C108.813 9.2239 108.497 10.2503 108.497 11.6188V26.8095ZM127.679 38.5515V4.06454C127.679 2.72338 128.075 1.71066 128.866 1.0264C129.657 0.342133 130.58 0 131.635 0C132.689 0 133.612 0.342133 134.403 1.0264C135.194 1.71066 135.59 2.72338 135.59 4.06454V38.5515H127.679Z" fill="#572DFF"/>
<path d="M142.551 17.2024C144.08 17.2024 145.359 17.0245 146.387 16.6687C147.442 16.3129 148.286 15.8202 148.918 15.1907C149.551 14.5612 150 13.8359 150.263 13.0147C150.553 12.1936 150.698 11.3041 150.698 10.3461V8.66281C150.698 8.08802 150.408 7.80063 149.828 7.80063H142.986C142.458 7.80063 141.997 7.70483 141.601 7.51324C141.232 7.32165 140.929 7.07531 140.692 6.77423C140.454 6.44579 140.27 6.08997 140.138 5.70678C140.033 5.32359 139.98 4.9404 139.98 4.55721C139.98 4.20139 140.033 3.83189 140.138 3.4487C140.244 3.06551 140.415 2.72338 140.652 2.4223C140.89 2.09385 141.193 1.83383 141.562 1.64224C141.957 1.45064 142.432 1.35485 142.986 1.35485H152.439C153.467 1.35485 154.324 1.46433 155.009 1.68329C155.721 1.90226 156.275 2.24439 156.671 2.70969C157.092 3.14762 157.382 3.69504 157.541 4.35193C157.725 5.00883 157.818 5.78889 157.818 6.69212V8.78597H160.349V3.57187C160.349 2.4223 160.678 1.56013 161.338 0.985343C161.997 0.383188 162.788 0.0821109 163.711 0.0821109C164.607 0.0821109 165.398 0.383188 166.084 0.985343C166.769 1.56013 167.112 2.4223 167.112 3.57187V22.6218H160.349V15.1496H157.066C156.17 17.832 154.561 19.9121 152.241 21.3902C149.947 22.8682 147.125 23.6345 143.777 23.6893C143.566 23.6893 143.355 23.6893 143.144 23.6893C142.959 23.6893 142.762 23.6756 142.551 23.6482C141.628 23.5387 140.863 23.1692 140.257 22.5397C139.65 21.9102 139.387 21.0754 139.466 20.0353C139.518 19.2142 139.808 18.5436 140.336 18.0236C140.863 17.4762 141.601 17.2024 142.551 17.2024ZM162.88 26.9327C162.88 26.9874 162.867 27.0422 162.841 27.0969C162.841 27.1517 162.841 27.2064 162.841 27.2612C164.37 27.2064 165.912 27.3843 167.468 27.7949C169.05 28.1781 170.5 28.8213 171.819 29.7245C173.137 30.6277 174.258 31.8047 175.181 33.2553C176.104 34.706 176.71 36.4714 177 38.5515H168.892C168.655 37.6483 168.246 36.8409 167.666 36.1292C167.112 35.445 166.427 34.8702 165.609 34.4049C164.818 33.9122 163.922 33.5701 162.92 33.3785C161.944 33.1869 160.916 33.1595 159.835 33.2964C158.859 34.2544 157.725 35.1165 156.433 35.8829C155.141 36.6493 153.796 37.2788 152.399 37.7715C151.002 38.2642 149.604 38.6063 148.207 38.7979C146.809 39.0168 145.517 39.0579 144.331 38.921C143.381 38.8116 142.59 38.4147 141.957 37.7304C141.325 37.0462 141.035 36.184 141.087 35.1439C141.14 34.1312 141.483 33.3648 142.116 32.8448C142.775 32.3247 143.566 32.0784 144.489 32.1058C145.385 32.1331 146.348 32.0373 147.376 31.8184C148.404 31.5994 149.406 31.2573 150.382 30.792C151.357 30.3267 152.241 29.7519 153.032 29.0676C153.823 28.3834 154.416 27.5759 154.812 26.6453C155.365 25.3315 155.998 24.442 156.71 23.9767C157.422 23.484 158.292 23.265 159.321 23.3198C160.349 23.3745 161.206 23.6893 161.891 24.2641C162.577 24.8115 162.907 25.701 162.88 26.9327ZM168.813 3.48976C168.813 2.34019 169.156 1.47801 169.841 0.903232C170.553 0.301077 171.371 0 172.293 0C173.19 0 173.994 0.301077 174.706 0.903232C175.418 1.47801 175.774 2.34019 175.774 3.48976V24.2641H168.813V3.48976Z" fill="#572DFF"/>
<g clip-path="url(#clip0_3270_56369)">
<path d="M9.842 14.2849C26.1848 20.0987 41.5615 9.6978 41.7271 9.59112C42.5829 9.0044 43.77 9.08441 44.5153 9.7778L47.2483 12.3114C48.1041 13.1114 48.1317 14.4449 47.3311 15.2983C47.1103 15.5383 45.2331 17.6185 46.641 19.6186C48.9047 22.6856 51.4169 21.8588 51.8586 21.6721C52.8524 21.2188 54.0394 21.5655 54.6192 22.4722L56.662 25.6191C57.1589 26.3659 57.1037 27.3526 56.524 28.0727C56.0547 28.6327 51.5825 33.6998 35.3501 37.4868C18.5932 41.4872 3.1061 36.3134 2.47116 36.1C2.27792 36.02 2.08468 35.94 1.91904 35.8067C1.61537 35.62 1.39452 35.3266 1.22888 35.0066C0.980429 34.4999 0.952821 33.9132 1.14606 33.3798L2.13989 30.6862C2.41595 29.9662 3.07849 29.4061 3.87907 29.2995C6.19799 28.9528 7.63351 27.726 8.15803 25.6458C8.76536 23.2456 6.44644 20.9788 6.44644 20.9788C5.83911 20.392 5.61826 19.5386 5.89432 18.7386L7.05378 15.5383C7.24702 15.0049 7.66112 14.5515 8.18563 14.3115C8.71015 14.0715 9.31748 14.0448 9.89721 14.2315L9.842 14.2849Z" fill="#8571FF"/>
<path d="M4.37603 14.0465C21.7127 15.6466 33.8318 1.77877 33.9698 1.64543C34.6324 0.845362 35.7918 0.658678 36.7304 1.13872L40.0432 2.92554C41.0922 3.48558 41.4787 4.76569 40.899 5.77911C40.7609 6.07247 39.491 8.55268 41.3959 10.1261C44.3773 12.5263 46.5858 11.1129 46.9723 10.8195C47.8281 10.1528 49.0704 10.1795 49.871 10.9262L52.6868 13.4598C53.3493 14.0731 53.5702 15.0332 53.2113 15.86C52.9076 16.5267 49.9262 22.5272 35.2397 30.1812C20.1115 38.1818 3.7687 37.0084 3.07855 36.9551C2.8577 36.9551 2.66445 36.9017 2.47121 36.8217C2.11233 36.7151 1.83627 36.5017 1.58781 36.235C1.20133 35.8083 1.03569 35.2483 1.06329 34.6882L1.31175 31.8346C1.39457 31.0612 1.89148 30.3679 2.60924 30.0745C4.76252 29.1678 5.81155 27.621 5.78395 25.5141C5.72874 23.0606 2.91291 21.4338 2.88531 21.4338C2.13994 21.0337 1.69824 20.2337 1.75345 19.4069L2.02951 16.02C2.08472 15.4599 2.33318 14.9266 2.80248 14.5532C3.24418 14.1798 3.82391 14.0198 4.43125 14.0465H4.37603Z" fill="white"/>
<path d="M0.373088 36.1009C0.483513 36.3676 0.64915 36.6076 0.842393 36.821C1.22888 37.221 1.64297 37.5144 2.11228 37.701C2.16749 37.701 2.19509 37.7277 2.25031 37.7277C2.47116 37.8077 2.71961 37.8611 2.96807 37.8611C3.65822 37.9144 20.1943 39.1412 35.6261 30.9805C50.6163 23.1398 53.7082 16.8993 54.0118 16.2326C54.5364 15.0858 54.2327 13.7257 53.2665 12.8456L50.4506 10.3121C49.3188 9.27196 47.552 9.21863 46.3373 10.1787C46.0613 10.3921 44.3497 11.4321 41.9203 9.48532C40.5953 8.39189 41.4786 6.5784 41.6719 6.20504C42.4449 4.79159 41.9203 2.95143 40.4296 2.17803L37.1169 0.391212C35.7918 -0.328849 34.163 -0.0354923 33.1968 1.11127C32.7275 1.64465 21.0225 14.7124 4.40359 13.1923C3.5754 13.1123 2.74722 13.379 2.11228 13.8857C1.47734 14.3924 1.09085 15.1391 1.00803 15.9659L0.731971 19.3528C0.649152 20.5262 1.25649 21.6463 2.30552 22.2064C2.41595 22.2597 4.70726 23.6465 4.73486 25.54C4.76247 27.3002 3.90668 28.5269 2.11228 29.2737C1.06324 29.727 0.345485 30.6871 0.262666 31.7805L0.0142103 34.6341C-0.041002 35.1408 0.069423 35.6475 0.262666 36.1009H0.373088ZM2.6644 35.9942C2.52637 35.9142 2.36073 35.8075 2.25031 35.6742C2.02946 35.4342 1.91904 35.1142 1.97425 34.7675L2.2227 31.9139C2.25031 31.4605 2.55398 31.0605 2.99567 30.8738C5.48023 29.8337 6.75011 27.9669 6.6949 25.46C6.63969 22.8198 3.9895 20.9796 3.32695 20.6063C2.88525 20.3662 2.6368 19.9129 2.6644 19.4328L2.94046 16.0725C2.94046 15.7258 3.1337 15.4325 3.38216 15.2191C3.65822 15.0058 3.98949 14.8991 4.32077 14.9258C21.8783 16.5259 34.163 2.79142 34.6875 2.2047C35.074 1.72466 35.7642 1.61798 36.2887 1.91134L39.6014 3.69816C40.2088 4.01819 40.4296 4.76492 40.0983 5.3783C39.2702 6.9251 38.9389 9.27196 40.7885 10.8188C44.2945 13.6457 47.0275 11.9389 47.5244 11.5655C48.0489 11.1388 48.7667 11.1655 49.236 11.5922L52.0518 14.1257C52.4383 14.4724 52.5763 15.0325 52.3555 15.5125C52.245 15.7792 49.4844 21.7264 34.7704 29.407C19.7802 37.3277 3.79625 36.1276 3.1337 36.0742C2.99567 36.0742 2.88525 36.0476 2.80243 35.9942C2.74722 35.9942 2.71962 35.9676 2.6644 35.9409V35.9942Z" fill="#572DFF"/>
<path d="M16.4123 35.9951C16.4951 36.2084 16.6883 36.3685 16.9368 36.4751C17.4061 36.6618 17.9306 36.4218 18.1238 35.9684C18.1515 35.8884 18.814 34.1816 19.2005 31.6481C19.2833 31.168 18.9244 30.7147 18.4275 30.6346C17.9306 30.5546 17.4613 30.9013 17.3785 31.3814C17.0196 33.7549 16.4123 35.3284 16.4123 35.3284C16.3294 35.5684 16.3294 35.8084 16.4123 35.9951ZM10.2561 14.3666C10.3113 14.4999 10.4217 14.6333 10.5598 14.74C11.7468 15.54 12.7959 16.4468 13.6793 17.4335C14.0105 17.8069 14.5903 17.8336 14.9767 17.5135C15.3632 17.1935 15.3908 16.6335 15.0596 16.2601C14.0657 15.1667 12.9063 14.1799 11.6088 13.2998C11.1947 13.0065 10.615 13.1132 10.3389 13.5132C10.1457 13.7799 10.1181 14.0999 10.2561 14.3933V14.3666ZM17.5441 26.1809C17.7098 26.5276 18.0686 26.741 18.4827 26.7143C18.9796 26.661 19.3385 26.2076 19.2833 25.7276C19.0901 24.2074 18.7312 22.7406 18.2067 21.3805C18.0134 20.9272 17.4889 20.6871 17.0196 20.8471C16.5503 21.0072 16.3018 21.5405 16.4675 21.9939C16.9368 23.2207 17.2681 24.5275 17.4337 25.9142C17.4337 25.9943 17.4613 26.1009 17.5165 26.1809H17.5441Z" fill="#572DFF"/>
</g>
<defs>
<clipPath id="clip0_3270_56369">
<rect width="57" height="39" fill="white" transform="matrix(-1 0 0 1 57 0)"/>
</clipPath>
</defs>
</svg>
