<svg width="81" height="18" viewBox="0 0 81 18" fill="none" xmlns="http://www.w3.org/2000/svg">
<g clip-path="url(#clip0_2243_37585)">
<path d="M20.6833 6.90994C13.5154 9.51871 6.77129 4.85165 6.69864 4.80378C6.32329 4.54051 5.80265 4.57641 5.47574 4.88755L4.27705 6.0244C3.9017 6.3834 3.88959 6.98175 4.24072 7.36468C4.33759 7.47238 5.16093 8.4058 4.54342 9.30331C3.55057 10.6795 2.44875 10.3085 2.25502 10.2248C1.81913 10.0213 1.29849 10.1769 1.04422 10.5838L0.148234 11.9958C-0.069709 12.3309 -0.0454935 12.7737 0.208774 13.0968C0.414609 13.3481 2.3761 15.6218 9.49558 17.3211C16.8451 19.1161 23.6377 16.7945 23.9162 16.6988C24.0009 16.6629 24.0857 16.627 24.1583 16.5672C24.2915 16.4834 24.3884 16.3518 24.461 16.2082C24.57 15.9808 24.5821 15.7175 24.4973 15.4782L24.0615 14.2695C23.9404 13.9464 23.6498 13.6951 23.2987 13.6473C22.2816 13.4917 21.652 12.9412 21.4219 12.0078C21.1555 10.9308 22.1726 9.91362 22.1726 9.91362C22.439 9.65035 22.5359 9.26741 22.4148 8.9084L21.9062 7.47239C21.8215 7.23305 21.6399 7.02961 21.4098 6.92191C21.1798 6.81421 20.9134 6.80224 20.6591 6.88601L20.6833 6.90994Z" fill="#8571FF"/>
<path d="M23.0807 6.8032C15.4769 7.52121 10.1615 1.29846 10.101 1.23863C9.81037 0.879623 9.30183 0.795855 8.89016 1.01126L7.43721 1.81303C6.97711 2.06434 6.80759 2.63875 7.06186 3.09348C7.1224 3.22512 7.67937 4.33803 6.84392 5.04408C5.53626 6.12109 4.56762 5.48685 4.39811 5.35521C4.02276 5.05604 3.47791 5.06801 3.12678 5.40308L1.89176 6.53993C1.60117 6.81517 1.50431 7.24597 1.66171 7.61694C1.7949 7.91612 3.10256 10.6087 9.54399 14.0431C16.1792 17.6332 23.3471 17.1066 23.6498 17.0827C23.7466 17.0827 23.8314 17.0588 23.9161 17.0229C24.0735 16.975 24.1946 16.8793 24.3036 16.7596C24.4731 16.5681 24.5458 16.3168 24.5336 16.0655L24.4247 14.7851C24.3884 14.438 24.1704 14.1269 23.8556 13.9953C22.9112 13.5884 22.4511 12.8943 22.4632 11.9489C22.4874 10.848 23.7224 10.118 23.7345 10.118C24.0614 9.93851 24.2552 9.5795 24.2309 9.20853L24.1099 7.68875C24.0857 7.43744 23.9767 7.19811 23.7708 7.03057C23.5771 6.86303 23.3228 6.79123 23.0565 6.8032H23.0807Z" fill="white"/>
<path d="M24.8364 16.6991C24.7879 16.8188 24.7153 16.9265 24.6305 17.0222C24.461 17.2017 24.2794 17.3334 24.0736 17.4171C24.0493 17.4171 24.0372 17.4291 24.013 17.4291C23.9162 17.465 23.8072 17.4889 23.6982 17.4889C23.3955 17.5129 16.1428 18.0633 9.3745 14.4015C2.79988 10.8832 1.44378 8.08301 1.3106 7.78384C1.08055 7.26926 1.21373 6.65896 1.63751 6.26405L2.87252 5.1272C3.36895 4.6605 4.14386 4.63656 4.67661 5.06737C4.79769 5.1631 5.54838 5.62981 6.61388 4.75623C7.19506 4.26559 6.80761 3.45185 6.72285 3.28431C6.38383 2.65007 6.61388 1.82436 7.26771 1.47732L8.72067 0.675544C9.30185 0.352439 10.0162 0.484074 10.44 0.998647C10.6458 1.23798 15.7796 7.10173 23.0686 6.41962C23.4318 6.38372 23.7951 6.50339 24.0736 6.73076C24.352 6.95813 24.5216 7.2932 24.5579 7.66417L24.679 9.18396C24.7153 9.7105 24.4489 10.2131 23.9888 10.4644C23.9404 10.4883 22.9354 11.1106 22.9233 11.9603C22.9112 12.7501 23.2865 13.3005 24.0736 13.6356C24.5337 13.8391 24.8485 14.2699 24.8848 14.7605L24.9938 16.0409C25.018 16.2683 24.9695 16.4957 24.8848 16.6991H24.8364ZM23.8314 16.6513C23.8919 16.6154 23.9646 16.5675 24.013 16.5077C24.1099 16.4 24.1583 16.2563 24.1341 16.1008L24.0251 14.8203C24.013 14.6169 23.8798 14.4374 23.6861 14.3536C22.5964 13.8869 22.0394 13.0492 22.0636 11.9244C22.0879 10.7396 23.2502 9.91393 23.5408 9.7464C23.7345 9.6387 23.8435 9.43526 23.8314 9.21986L23.7103 7.71204C23.7103 7.55647 23.6256 7.42483 23.5166 7.3291C23.3955 7.23336 23.2502 7.1855 23.1049 7.19746C15.4043 7.91547 10.0162 1.75256 9.78617 1.48929C9.61666 1.27389 9.31396 1.22602 9.08391 1.35765L7.63095 2.15943C7.36458 2.30303 7.26771 2.6381 7.41301 2.91334C7.77625 3.60742 7.92154 4.6605 7.11031 5.35457C5.5726 6.62305 4.37391 5.85718 4.15597 5.68964C3.92592 5.49817 3.61111 5.51014 3.40527 5.70161L2.17026 6.83846C2.00075 6.99403 1.94021 7.24533 2.03707 7.46073C2.08551 7.5804 3.2963 10.249 9.74984 13.6954C16.3245 17.2496 23.335 16.7111 23.6256 16.6872C23.6861 16.6872 23.7345 16.6752 23.7709 16.6513C23.7951 16.6513 23.8072 16.6393 23.8314 16.6273V16.6513Z" fill="#572DFF"/>
<path d="M17.8016 16.6515C17.7653 16.7473 17.6806 16.8191 17.5716 16.8669C17.3658 16.9507 17.1357 16.843 17.0509 16.6396C17.0388 16.6037 16.7482 15.8378 16.5787 14.7009C16.5424 14.4855 16.6998 14.2821 16.9178 14.2462C17.1357 14.2103 17.3415 14.3659 17.3779 14.5813C17.5353 15.6463 17.8016 16.3524 17.8016 16.3524C17.838 16.4601 17.838 16.5678 17.8016 16.6515ZM20.5017 6.94645C20.4775 7.00628 20.4291 7.06611 20.3685 7.11398C19.8479 7.47299 19.3878 7.87986 19.0003 8.32263C18.855 8.49017 18.6008 8.50213 18.4313 8.35853C18.2617 8.21493 18.2496 7.96363 18.3949 7.79609C18.8308 7.30545 19.3393 6.86268 19.9084 6.46777C20.09 6.33614 20.3443 6.38401 20.4654 6.56351C20.5501 6.68318 20.5623 6.82678 20.5017 6.95841V6.94645ZM17.3052 12.2477C17.2326 12.4033 17.0752 12.4991 16.8935 12.4871C16.6756 12.4632 16.5182 12.2597 16.5424 12.0443C16.6272 11.3622 16.7846 10.704 17.0146 10.0937C17.0994 9.89029 17.3294 9.78258 17.5353 9.85438C17.7411 9.92618 17.8501 10.1655 17.7774 10.369C17.5716 10.9194 17.4263 11.5058 17.3536 12.1281C17.3536 12.164 17.3415 12.2118 17.3173 12.2477H17.3052Z" fill="#572DFF"/>
</g>
<path d="M29 5.75043C29 4.93983 29.1183 4.22749 29.3549 3.61341C29.6034 2.98704 29.9406 2.46507 30.3666 2.04749C30.8043 1.62992 31.3249 1.31673 31.9283 1.10794C32.5317 0.899155 33.2002 0.79476 33.9338 0.79476C34.6555 0.79476 35.3181 0.899155 35.9215 1.10794C36.5249 1.31673 37.0455 1.62992 37.4833 2.04749C37.921 2.46507 38.2582 2.98704 38.4949 3.61341C38.7315 4.22749 38.8498 4.93983 38.8498 5.75043V12.4931C38.8498 13.3037 38.7315 14.0221 38.4949 14.6485C38.2582 15.2626 37.921 15.7784 37.4833 16.196C37.0455 16.6136 36.5249 16.9268 35.9215 17.1356C35.3181 17.3443 34.6555 17.4487 33.9338 17.4487C33.2002 17.4487 32.5317 17.3443 31.9283 17.1356C31.3249 16.9268 30.8043 16.6136 30.3666 16.196C29.9406 15.7784 29.6034 15.2626 29.3549 14.6485C29.1183 14.0221 29 13.3037 29 12.4931V5.75043ZM40.6423 2.28699C40.6423 1.69747 40.8198 1.25532 41.1747 0.960563C41.5297 0.653521 41.9379 0.5 42.3993 0.5C42.6241 0.5 42.843 0.542986 43.056 0.628957C43.2689 0.702648 43.4523 0.813183 43.6061 0.960563C43.7718 1.10794 43.9019 1.29217 43.9966 1.51324C44.1031 1.73431 44.1563 1.99223 44.1563 2.28699V6.94789H44.742C45.0141 6.94789 45.2389 6.99702 45.4164 7.09527C45.5939 7.19352 45.7358 7.32248 45.8423 7.48214C45.9488 7.62952 46.0257 7.80147 46.073 7.99798C46.1204 8.1822 46.144 8.36643 46.144 8.55065C46.144 8.73488 46.1204 8.92524 46.073 9.12175C46.0257 9.30598 45.9488 9.47792 45.8423 9.63758C45.7358 9.78496 45.5879 9.90778 45.3986 10.006C45.2212 10.1043 45.0023 10.1534 44.742 10.1534H44.1563V17.7988H40.6423V2.28699ZM32.4785 12.5852C32.4785 13.2116 32.6146 13.6783 32.8867 13.9853C33.1588 14.2801 33.5079 14.4274 33.9338 14.4274C34.3597 14.4274 34.7088 14.2801 34.9809 13.9853C35.253 13.6783 35.3891 13.2116 35.3891 12.5852V5.65831C35.3891 5.03195 35.253 4.57138 34.9809 4.27662C34.7088 3.96958 34.3597 3.81606 33.9338 3.81606C33.5079 3.81606 33.1588 3.96958 32.8867 4.27662C32.6146 4.57138 32.4785 5.03195 32.4785 5.65831V12.5852Z" fill="#572DFF"/>
<path d="M46.7474 5.78727C46.7474 4.97668 46.8717 4.26434 47.1201 3.65026C47.3686 3.02389 47.7117 2.50192 48.1495 2.08434C48.5991 1.65448 49.1315 1.33516 49.7468 1.12637C50.362 0.905295 51.0423 0.79476 51.7877 0.79476C52.5331 0.79476 53.2134 0.905295 53.8287 1.12637C54.4439 1.33516 54.9763 1.64834 55.4259 2.06592C55.8755 2.48349 56.2246 3.00547 56.473 3.63183C56.7215 4.2582 56.8457 4.97668 56.8457 5.78727V12.4562C56.8457 13.2668 56.7215 13.9853 56.473 14.6117C56.2246 15.238 55.8755 15.76 55.4259 16.1776C54.9882 16.5952 54.4557 16.9083 53.8287 17.1171C53.2134 17.3382 52.539 17.4487 51.8055 17.4487C51.0601 17.4487 50.3797 17.3382 49.7645 17.1171C49.1493 16.9083 48.6168 16.5952 48.1672 16.1776C47.7176 15.76 47.3686 15.238 47.1201 14.6117C46.8717 13.9853 46.7474 13.2668 46.7474 12.4562V5.78727ZM50.2614 12.5299C50.2614 13.1563 50.4034 13.6291 50.6874 13.9485C50.9832 14.2555 51.3499 14.409 51.7877 14.409C52.2255 14.409 52.5923 14.2555 52.8881 13.9485C53.1838 13.6291 53.3317 13.1563 53.3317 12.5299V5.71358C53.3317 5.08721 53.1838 4.61437 52.8881 4.29504C52.5923 3.97572 52.2255 3.8222 51.7877 3.83448C51.3499 3.84676 50.9832 4.01256 50.6874 4.33189C50.4034 4.63893 50.2614 5.09949 50.2614 5.71358V12.5299ZM58.8689 17.7988V2.32383C58.8689 1.72203 59.0464 1.26761 59.4014 0.960563C59.7563 0.653521 60.1704 0.5 60.6437 0.5C61.117 0.5 61.5311 0.653521 61.886 0.960563C62.241 1.26761 62.4184 1.72203 62.4184 2.32383V17.7988H58.8689Z" fill="#572DFF"/>
<path d="M65.542 8.21905C66.2282 8.21905 66.802 8.13921 67.2635 7.97955C67.7367 7.81989 68.1154 7.59882 68.3993 7.31634C68.6833 7.03386 68.8844 6.7084 69.0027 6.33995C69.1329 5.9715 69.198 5.57234 69.198 5.14248V4.38716C69.198 4.12924 69.0678 4.00028 68.8075 4.00028H65.7372C65.5006 4.00028 65.2935 3.9573 65.116 3.87133C64.9504 3.78535 64.8143 3.67482 64.7079 3.53972C64.6014 3.39234 64.5185 3.23268 64.4594 3.06073C64.4121 2.88879 64.3884 2.71685 64.3884 2.5449C64.3884 2.38524 64.4121 2.21944 64.4594 2.04749C64.5067 1.87555 64.5836 1.72203 64.6901 1.58693C64.7966 1.43955 64.9327 1.32287 65.0983 1.2369C65.2758 1.15093 65.4887 1.10794 65.7372 1.10794H69.9788C70.4403 1.10794 70.8248 1.15707 71.1324 1.25532C71.4519 1.35358 71.7003 1.5071 71.8778 1.71589C72.0671 1.9124 72.1973 2.15803 72.2683 2.45279C72.3511 2.74755 72.3925 3.09758 72.3925 3.50287V4.44242H73.5283V2.10276C73.5283 1.58693 73.6762 1.20006 73.972 0.942141C74.2678 0.671943 74.6228 0.536845 75.0369 0.536845C75.4391 0.536845 75.7941 0.671943 76.1017 0.942141C76.4093 1.20006 76.5631 1.58693 76.5631 2.10276V10.6508H73.5283V7.29792H72.0553C71.653 8.50152 70.9313 9.43493 69.8901 10.0981C68.8608 10.7614 67.5948 11.1052 66.0922 11.1298C65.9975 11.1298 65.9028 11.1298 65.8082 11.1298C65.7254 11.1298 65.6366 11.1237 65.542 11.1114C65.1279 11.0623 64.7848 10.8965 64.5126 10.614C64.2405 10.3315 64.1222 9.95691 64.1577 9.4902C64.1813 9.12175 64.3115 8.82085 64.5481 8.5875C64.7848 8.34186 65.116 8.21905 65.542 8.21905ZM74.6642 12.5852C74.6642 12.6098 74.6582 12.6343 74.6464 12.6589C74.6464 12.6834 74.6464 12.708 74.6464 12.7326C75.3327 12.708 76.0248 12.7878 76.7229 12.9721C77.4328 13.144 78.0835 13.4326 78.6751 13.8379C79.2667 14.2432 79.7695 14.7713 80.1836 15.4223C80.5977 16.0732 80.8699 16.8654 81 17.7988H77.3618C77.2553 17.3935 77.0719 17.0312 76.8116 16.7118C76.5631 16.4048 76.2555 16.1469 75.8887 15.9381C75.5338 15.717 75.1315 15.5635 74.6819 15.4775C74.2441 15.3916 73.7827 15.3793 73.2976 15.4407C72.8598 15.8705 72.3511 16.2574 71.7713 16.6013C71.1916 16.9452 70.5882 17.2277 69.9611 17.4487C69.334 17.6698 68.7069 17.8233 68.0799 17.9093C67.4528 18.0076 66.873 18.026 66.3406 17.9646C65.9147 17.9154 65.5597 17.7374 65.2758 17.4303C64.9918 17.1233 64.8617 16.7364 64.8853 16.2697C64.909 15.8153 65.0628 15.4714 65.3468 15.238C65.6425 15.0047 65.9975 14.8941 66.4116 14.9064C66.8139 14.9187 67.2457 14.8757 67.7072 14.7775C68.1686 14.6792 68.6182 14.5257 69.056 14.3169C69.4937 14.1081 69.8901 13.8502 70.2451 13.5432C70.6 13.2361 70.8662 12.8738 71.0437 12.4562C71.2922 11.8667 71.5761 11.4676 71.8956 11.2588C72.215 11.0377 72.6055 10.9394 73.0669 10.964C73.5283 10.9886 73.9129 11.1298 74.2205 11.3877C74.5281 11.6334 74.676 12.0325 74.6642 12.5852ZM77.3263 2.06592C77.3263 1.55008 77.4801 1.16321 77.7877 0.905296C78.1072 0.635099 78.4739 0.5 78.8881 0.5C79.2903 0.5 79.6512 0.635099 79.9707 0.905296C80.2901 1.16321 80.4498 1.55008 80.4498 2.06592V11.3877H77.3263V2.06592Z" fill="#572DFF"/>
<defs>
<clipPath id="clip0_2243_37585">
<rect width="25" height="17.5" fill="white" transform="translate(0 0.5)"/>
</clipPath>
</defs>
</svg>
