<svg width="81" height="18" viewBox="0 0 81 18" fill="none" xmlns="http://www.w3.org/2000/svg">
<g clip-path="url(#clip0_2601_60859)">
<mask id="mask0_2601_60859" style="mask-type:luminance" maskUnits="userSpaceOnUse" x="0" y="1" width="24" height="17">
<path d="M24 1H0V18H24V1Z" fill="white"/>
</mask>
<g mask="url(#mask0_2601_60859)">
<path opacity="0.2" d="M3.80931 7.18959C3.56491 7.10207 3.30097 7.12152 3.07612 7.22849C2.85128 7.33547 2.67532 7.52997 2.58733 7.76336L2.08877 9.16376C1.97146 9.51385 2.06922 9.8834 2.33316 10.146C2.33316 10.146 3.33029 11.1282 3.06635 12.1785C2.8415 13.0926 2.22563 13.6275 1.2285 13.7734C0.886349 13.822 0.602852 14.0651 0.475767 14.3763L0.0554083 15.553C-0.0325737 15.7864 -0.0130221 16.0393 0.0945114 16.263C0.162942 16.3991 0.2607 16.5255 0.387785 16.6131C0.465991 16.6714 0.544197 16.7006 0.632179 16.7395C0.896125 16.827 7.54365 19.0832 14.7288 17.3424C21.6892 15.6989 23.5955 13.4816 23.8008 13.2385C24.0452 12.9273 24.0647 12.4994 23.8594 12.1688L22.9796 10.7975C22.7254 10.3988 22.2171 10.2529 21.7967 10.4474C21.611 10.535 20.5357 10.8948 19.5581 9.55275C18.9618 8.68723 19.7634 7.77309 19.8514 7.66612C20.1935 7.28684 20.1837 6.70335 19.8122 6.36297L18.6392 5.25433C18.3263 4.95286 17.818 4.91396 17.4465 5.16681C17.3781 5.21543 10.7892 9.74725 3.77998 7.21877L3.79953 7.19932L3.80931 7.18959Z" fill="white"/>
<path d="M0.175229 16.7316H0.126675C0.0392767 16.5374 0.000433231 16.314 0.019855 16.0907L0.126675 14.8477C0.165518 14.3719 0.466555 13.9543 0.913255 13.7601C1.68041 13.4299 2.03972 12.8958 2.03 12.1286C2.02029 11.3032 1.0395 10.7011 0.990942 10.6817C0.544242 10.439 0.282048 9.95341 0.320892 9.43873L0.437422 7.96268C0.476266 7.60338 0.63164 7.27321 0.903544 7.04986C1.16574 6.82651 1.52504 6.70998 1.87463 6.74882C8.95386 7.40916 13.9355 1.71859 14.1395 1.48553C14.557 0.990275 15.2368 0.864033 15.8097 1.17478L17.2275 1.95165C17.8587 2.29153 18.0821 3.08782 17.7519 3.70932C17.6645 3.86469 17.2955 4.66098 17.8587 5.13682C18.8881 5.99137 19.6164 5.53496 19.7329 5.43785C20.2476 5.01057 21.005 5.03971 21.4809 5.49612L22.6753 6.60316C23.0832 6.99159 23.2191 7.58396 22.9861 8.07921C22.8598 8.37054 21.5391 11.0896 15.1591 14.4981C8.58484 18.0523 1.54446 17.5182 1.25314 17.4988C1.14632 17.4988 1.0395 17.4793 0.942388 17.4405C0.922966 17.4405 0.903544 17.4308 0.884122 17.4308C0.689905 17.3531 0.505398 17.2269 0.340314 17.0521C0.252916 16.9647 0.18494 16.8578 0.136385 16.7413H0.146096L0.175229 16.7316ZM1.13661 16.6928V16.6733C1.13661 16.6733 1.17545 16.6928 1.19487 16.6928C1.23371 16.7122 1.28227 16.7316 1.33082 16.7316C1.61244 16.751 8.41976 17.2754 14.8095 13.828C21.073 10.4778 22.248 7.8947 22.2966 7.76846C22.3937 7.56453 22.3354 7.32176 22.1703 7.16639L20.9759 6.05935C20.772 5.87484 20.4709 5.85542 20.2476 6.04964C20.034 6.20501 18.8784 6.96246 17.3829 5.71947C16.5963 5.04942 16.742 4.02007 17.0916 3.35002C17.2275 3.07811 17.1401 2.75765 16.8779 2.61199L15.4698 1.83512C15.2465 1.69917 14.9552 1.74772 14.7901 1.96136C14.5667 2.21384 9.33258 8.20545 1.85521 7.50627C1.71926 7.49656 1.57359 7.54511 1.45706 7.63251C1.35024 7.72962 1.27256 7.85586 1.27256 8.01123L1.15603 9.47758C1.14632 9.6815 1.24342 9.88543 1.43764 9.99225C1.72897 10.1573 2.85543 10.9536 2.87485 12.1092C2.89427 13.1968 2.36017 14.0126 1.30169 14.469C1.11718 14.5466 0.990942 14.7214 0.97152 14.9157L0.864701 16.1587C0.845279 16.314 0.893833 16.45 0.981231 16.5568C1.02979 16.6151 1.09776 16.6636 1.15603 16.6928H1.13661Z" fill="white"/>
<path d="M6.98255 16.6829C6.9437 16.5955 6.9437 16.4984 6.98255 16.3915C6.98255 16.3915 7.24474 15.7021 7.40012 14.6727C7.43896 14.4688 7.64289 14.3134 7.84682 14.3426C8.06045 14.3814 8.21583 14.5756 8.17699 14.7893C8.0119 15.8963 7.74 16.6343 7.72057 16.6732C7.63318 16.8771 7.41954 16.9742 7.21561 16.8965C7.10879 16.848 7.0311 16.78 6.99226 16.6926L6.98255 16.6829ZM4.39946 6.8749C4.51599 6.7001 4.76847 6.66126 4.94327 6.7875C5.49679 7.16622 5.99204 7.60321 6.41932 8.07904C6.55527 8.24413 6.54556 8.4869 6.38047 8.62285C6.21539 8.75881 5.96291 8.74909 5.82695 8.58401C5.44823 8.15673 5.00153 7.75859 4.49657 7.40899C4.4383 7.37015 4.38975 7.30217 4.37032 7.25362C4.31206 7.12738 4.32177 6.99143 4.40917 6.8749H4.39946ZM7.4778 12.4004H7.46809C7.46809 12.4004 7.42925 12.313 7.42925 12.2839C7.36127 11.6818 7.21561 11.1088 7.01168 10.5747C6.9437 10.3805 7.05052 10.1475 7.25445 10.0795C7.44867 10.0115 7.67202 10.1183 7.75942 10.3125C7.97306 10.9049 8.12843 11.5458 8.21583 12.2062C8.23525 12.4101 8.07988 12.614 7.87595 12.6334C7.70115 12.6334 7.54578 12.546 7.4778 12.4004Z" fill="white"/>
</g>
</g>
<path d="M29 5.75043C29 4.93983 29.1183 4.22749 29.3549 3.61341C29.6034 2.98704 29.9406 2.46507 30.3666 2.04749C30.8043 1.62992 31.3249 1.31673 31.9283 1.10794C32.5317 0.899155 33.2002 0.79476 33.9338 0.79476C34.6555 0.79476 35.3181 0.899155 35.9215 1.10794C36.5249 1.31673 37.0455 1.62992 37.4833 2.04749C37.921 2.46507 38.2582 2.98704 38.4949 3.61341C38.7315 4.22749 38.8498 4.93983 38.8498 5.75043V12.4931C38.8498 13.3037 38.7315 14.0221 38.4949 14.6485C38.2582 15.2626 37.921 15.7784 37.4833 16.196C37.0455 16.6136 36.5249 16.9268 35.9215 17.1356C35.3181 17.3443 34.6555 17.4487 33.9338 17.4487C33.2002 17.4487 32.5317 17.3443 31.9283 17.1356C31.3249 16.9268 30.8043 16.6136 30.3666 16.196C29.9406 15.7784 29.6034 15.2626 29.3549 14.6485C29.1183 14.0221 29 13.3037 29 12.4931V5.75043ZM40.6423 2.28699C40.6423 1.69747 40.8198 1.25532 41.1747 0.960563C41.5297 0.653521 41.9379 0.5 42.3993 0.5C42.6241 0.5 42.843 0.542986 43.056 0.628957C43.2689 0.702648 43.4523 0.813183 43.6061 0.960563C43.7718 1.10794 43.9019 1.29217 43.9966 1.51324C44.1031 1.73431 44.1563 1.99223 44.1563 2.28699V6.94789H44.742C45.0141 6.94789 45.2389 6.99702 45.4164 7.09527C45.5939 7.19352 45.7358 7.32248 45.8423 7.48214C45.9488 7.62952 46.0257 7.80147 46.073 7.99798C46.1204 8.1822 46.144 8.36643 46.144 8.55065C46.144 8.73488 46.1204 8.92524 46.073 9.12175C46.0257 9.30598 45.9488 9.47792 45.8423 9.63758C45.7358 9.78496 45.5879 9.90778 45.3986 10.006C45.2212 10.1043 45.0023 10.1534 44.742 10.1534H44.1563V17.7988H40.6423V2.28699ZM32.4785 12.5852C32.4785 13.2116 32.6146 13.6783 32.8867 13.9853C33.1588 14.2801 33.5079 14.4274 33.9338 14.4274C34.3597 14.4274 34.7088 14.2801 34.9809 13.9853C35.253 13.6783 35.3891 13.2116 35.3891 12.5852V5.65831C35.3891 5.03195 35.253 4.57138 34.9809 4.27662C34.7088 3.96958 34.3597 3.81606 33.9338 3.81606C33.5079 3.81606 33.1588 3.96958 32.8867 4.27662C32.6146 4.57138 32.4785 5.03195 32.4785 5.65831V12.5852Z" fill="white"/>
<path d="M46.7474 5.78727C46.7474 4.97668 46.8717 4.26434 47.1201 3.65026C47.3686 3.02389 47.7117 2.50192 48.1495 2.08434C48.5991 1.65448 49.1315 1.33516 49.7468 1.12637C50.362 0.905295 51.0423 0.79476 51.7877 0.79476C52.5331 0.79476 53.2134 0.905295 53.8287 1.12637C54.4439 1.33516 54.9763 1.64834 55.4259 2.06592C55.8755 2.48349 56.2246 3.00547 56.473 3.63183C56.7215 4.2582 56.8457 4.97668 56.8457 5.78727V12.4562C56.8457 13.2668 56.7215 13.9853 56.473 14.6117C56.2246 15.238 55.8755 15.76 55.4259 16.1776C54.9882 16.5952 54.4557 16.9083 53.8287 17.1171C53.2134 17.3382 52.539 17.4487 51.8055 17.4487C51.0601 17.4487 50.3797 17.3382 49.7645 17.1171C49.1493 16.9083 48.6168 16.5952 48.1672 16.1776C47.7176 15.76 47.3686 15.238 47.1201 14.6117C46.8717 13.9853 46.7474 13.2668 46.7474 12.4562V5.78727ZM50.2614 12.5299C50.2614 13.1563 50.4034 13.6291 50.6874 13.9485C50.9832 14.2555 51.3499 14.409 51.7877 14.409C52.2255 14.409 52.5923 14.2555 52.8881 13.9485C53.1838 13.6291 53.3317 13.1563 53.3317 12.5299V5.71358C53.3317 5.08721 53.1838 4.61437 52.8881 4.29504C52.5923 3.97572 52.2255 3.8222 51.7877 3.83448C51.3499 3.84676 50.9832 4.01256 50.6874 4.33189C50.4034 4.63893 50.2614 5.09949 50.2614 5.71358V12.5299ZM58.8689 17.7988V2.32383C58.8689 1.72203 59.0464 1.26761 59.4014 0.960563C59.7563 0.653521 60.1704 0.5 60.6437 0.5C61.117 0.5 61.5311 0.653521 61.886 0.960563C62.241 1.26761 62.4184 1.72203 62.4184 2.32383V17.7988H58.8689Z" fill="white"/>
<path d="M65.542 8.21905C66.2282 8.21905 66.802 8.13921 67.2635 7.97955C67.7367 7.81989 68.1154 7.59882 68.3993 7.31634C68.6833 7.03386 68.8844 6.7084 69.0027 6.33995C69.1329 5.9715 69.198 5.57234 69.198 5.14248V4.38716C69.198 4.12924 69.0678 4.00028 68.8075 4.00028H65.7372C65.5006 4.00028 65.2935 3.9573 65.116 3.87133C64.9504 3.78535 64.8143 3.67482 64.7079 3.53972C64.6014 3.39234 64.5185 3.23268 64.4594 3.06073C64.4121 2.88879 64.3884 2.71685 64.3884 2.5449C64.3884 2.38524 64.4121 2.21944 64.4594 2.04749C64.5067 1.87555 64.5836 1.72203 64.6901 1.58693C64.7966 1.43955 64.9327 1.32287 65.0983 1.2369C65.2758 1.15093 65.4887 1.10794 65.7372 1.10794H69.9788C70.4403 1.10794 70.8248 1.15707 71.1324 1.25532C71.4519 1.35358 71.7003 1.5071 71.8778 1.71589C72.0671 1.9124 72.1973 2.15803 72.2683 2.45279C72.3511 2.74755 72.3925 3.09758 72.3925 3.50287V4.44242H73.5283V2.10276C73.5283 1.58693 73.6762 1.20006 73.972 0.942141C74.2678 0.671943 74.6228 0.536845 75.0369 0.536845C75.4391 0.536845 75.7941 0.671943 76.1017 0.942141C76.4093 1.20006 76.5631 1.58693 76.5631 2.10276V10.6508H73.5283V7.29792H72.0553C71.653 8.50152 70.9313 9.43493 69.8901 10.0981C68.8608 10.7614 67.5948 11.1052 66.0922 11.1298C65.9975 11.1298 65.9028 11.1298 65.8082 11.1298C65.7254 11.1298 65.6366 11.1237 65.542 11.1114C65.1279 11.0623 64.7848 10.8965 64.5126 10.614C64.2405 10.3315 64.1222 9.95691 64.1577 9.4902C64.1813 9.12175 64.3115 8.82085 64.5481 8.5875C64.7848 8.34186 65.116 8.21905 65.542 8.21905ZM74.6642 12.5852C74.6642 12.6098 74.6582 12.6343 74.6464 12.6589C74.6464 12.6834 74.6464 12.708 74.6464 12.7326C75.3327 12.708 76.0248 12.7878 76.7229 12.9721C77.4328 13.144 78.0835 13.4326 78.6751 13.8379C79.2667 14.2432 79.7695 14.7713 80.1836 15.4223C80.5977 16.0732 80.8699 16.8654 81 17.7988H77.3618C77.2553 17.3935 77.0719 17.0312 76.8116 16.7118C76.5631 16.4048 76.2555 16.1469 75.8887 15.9381C75.5338 15.717 75.1315 15.5635 74.6819 15.4775C74.2441 15.3916 73.7827 15.3793 73.2976 15.4407C72.8598 15.8705 72.3511 16.2574 71.7713 16.6013C71.1916 16.9452 70.5882 17.2277 69.9611 17.4487C69.334 17.6698 68.7069 17.8233 68.0799 17.9093C67.4528 18.0076 66.873 18.026 66.3406 17.9646C65.9147 17.9154 65.5597 17.7374 65.2758 17.4303C64.9918 17.1233 64.8617 16.7364 64.8853 16.2697C64.909 15.8153 65.0628 15.4714 65.3468 15.238C65.6425 15.0047 65.9975 14.8941 66.4116 14.9064C66.8139 14.9187 67.2457 14.8757 67.7072 14.7775C68.1686 14.6792 68.6182 14.5257 69.056 14.3169C69.4937 14.1081 69.8901 13.8502 70.2451 13.5432C70.6 13.2361 70.8662 12.8738 71.0437 12.4562C71.2922 11.8667 71.5761 11.4676 71.8956 11.2588C72.215 11.0377 72.6055 10.9394 73.0669 10.964C73.5283 10.9886 73.9129 11.1298 74.2205 11.3877C74.5281 11.6334 74.676 12.0325 74.6642 12.5852ZM77.3263 2.06592C77.3263 1.55008 77.4801 1.16321 77.7877 0.905296C78.1072 0.635099 78.4739 0.5 78.8881 0.5C79.2903 0.5 79.6512 0.635099 79.9707 0.905296C80.2901 1.16321 80.4498 1.55008 80.4498 2.06592V11.3877H77.3263V2.06592Z" fill="white"/>
<defs>
<clipPath id="clip0_2601_60859">
<rect width="25" height="17.5" fill="white" transform="translate(0 0.5)"/>
</clipPath>
</defs>
</svg>
