<svg width="24" height="24" viewBox="0 0 24 24" fill="none" xmlns="http://www.w3.org/2000/svg">
<path d="M12.2672 5.10469C13.2656 5.10469 14.5172 4.42969 15.2625 3.52969C15.9375 2.71406 16.4297 1.575 16.4297 0.435938C16.4297 0.28125 16.4156 0.126563 16.3875 0C15.2766 0.0421875 13.9406 0.745313 13.1391 1.6875C12.5063 2.40469 11.9297 3.52969 11.9297 4.68281C11.9297 4.85156 11.9578 5.02031 11.9719 5.07656C12.0422 5.09063 12.1547 5.10469 12.2672 5.10469ZM8.75156 22.1203C10.1156 22.1203 10.7203 21.2063 12.4219 21.2063C14.1516 21.2063 14.5312 22.0922 16.05 22.0922C17.5406 22.0922 18.5391 20.7141 19.4813 19.3641C20.5359 17.8172 20.9719 16.2984 21 16.2281C20.9016 16.2 18.0469 15.0328 18.0469 11.7563C18.0469 8.91563 20.2969 7.63594 20.4234 7.5375C18.9328 5.4 16.6687 5.34375 16.05 5.34375C14.3766 5.34375 13.0125 6.35625 12.1547 6.35625C11.2266 6.35625 10.0031 5.4 8.55469 5.4C5.79844 5.4 3 7.67813 3 11.9813C3 14.6531 4.04062 17.4797 5.32031 19.3078C6.41719 20.8547 7.37344 22.1203 8.75156 22.1203Z" fill="black"/>
</svg>
