<svg width="29" height="16" viewBox="0 0 29 16" fill="none" xmlns="http://www.w3.org/2000/svg">
<path d="M0 1C0 0.447715 0.447715 0 1 0H27V16H0.999999C0.447715 16 0 15.5523 0 15V1Z" fill="#FF295C"/>
<path d="M11.1776 5.57V6.4H9.29758V7.42H11.1776V8.33H12.4576V3.25H11.1776V4.55H9.50758C9.51758 4.46 9.51758 4.36 9.51758 4.26V3.69H4.97758V4.85H8.19758C8.01758 5.8 6.85758 6.72 4.70758 7.33L5.20758 8.47C7.29758 7.86 8.74758 6.95 9.28758 5.57H11.1776ZM8.17758 8.74C6.84758 8.74 5.92758 9.53 5.92758 10.71C5.92758 11.9 6.84758 12.68 8.17758 12.68H10.3076C11.6476 12.68 12.5676 11.9 12.5676 10.71C12.5676 9.53 11.6476 8.74 10.3076 8.74H8.17758ZM8.36758 11.54C7.59758 11.54 7.19758 11.2 7.19758 10.7C7.19758 10.21 7.59758 9.87 8.36758 9.87H10.1176C10.8976 9.87 11.2876 10.21 11.2876 10.7C11.2876 11.2 10.8976 11.54 10.1176 11.54H8.36758ZM20.87 6.62H19.94V3.39H18.73V12.36H19.94V7.78H20.87V12.58H22.11V3.24H20.87V6.62ZM17.88 11.1V3.88H14.07V11.1H17.88ZM16.71 5.05V9.93H15.25V5.05H16.71Z" fill="white"/>
<path fill-rule="evenodd" clip-rule="evenodd" d="M29 0H27V16H29V15.1429C28.1716 15.1429 27.5 14.5672 27.5 13.8571C27.5 13.1471 28.1716 12.5714 29 12.5714V11.2857C28.1716 11.2857 27.5 10.7101 27.5 10C27.5 9.28992 28.1716 8.71429 29 8.71429V7.42857C28.1716 7.42857 27.5 6.85294 27.5 6.14286C27.5 5.43278 28.1716 4.85714 29 4.85714V3.57143C28.1716 3.57143 27.5 2.99579 27.5 2.28571C27.5 1.57563 28.1716 1 29 1V0Z" fill="#FF295C"/>
</svg>
