<svg width="24" height="24" viewBox="0 0 24 24" fill="none" xmlns="http://www.w3.org/2000/svg">
<g clip-path="url(#clip0_1364_37342)">
<g clip-path="url(#clip1_1364_37342)">
<path d="M7.46113 11.0511C7.46113 11.4644 7.14529 11.7982 6.75425 11.7982C6.36321 11.7982 6.04736 11.4644 6.04736 11.0511C6.04736 10.6378 6.36321 10.304 6.75425 10.304C7.14529 10.304 7.46113 10.6378 7.46113 11.0511Z" fill="white"/>
<path d="M13.0648 10.304C12.6738 10.304 12.358 10.6378 12.358 11.0511C12.358 11.4643 12.6738 11.7981 13.0648 11.7981C13.4559 11.7981 13.7747 11.4643 13.7747 11.0511C13.7747 10.6378 13.4559 10.304 13.0648 10.304ZM13.0648 10.304C12.6738 10.304 12.358 10.6378 12.358 11.0511C12.358 11.4643 12.6738 11.7981 13.0648 11.7981C13.4559 11.7981 13.7747 11.4643 13.7747 11.0511C13.7747 10.6378 13.4559 10.304 13.0648 10.304ZM18.1544 4H5.84258C4.26938 4 3 5.35108 3 7.01371V14.1665C3 15.8323 4.26938 17.1802 5.84258 17.1802H10.0839L11.5307 19.6694C11.5307 19.6694 11.5458 19.7012 11.5759 19.7425C11.6631 19.8951 11.8195 20 12 20C12.1805 20 12.3339 19.8951 12.4181 19.7457C12.4542 19.7012 12.4662 19.6694 12.4662 19.6694L13.9131 17.1802H18.1544C19.7246 17.1802 21 15.8323 21 14.1665V7.01371C21 5.35108 19.7246 4 18.1544 4ZM6.99766 12.825C6.33289 12.825 6.07119 12.3227 6.07119 12.3227V12.7042H4.95822V7.85297H6.05916V9.69998C6.50434 9.23902 6.99766 9.23902 6.99766 9.23902C8.49265 9.23902 8.5498 11.0129 8.5498 11.0129C8.5498 12.7646 6.99766 12.825 6.99766 12.825ZM10.4689 9.56646V12.7042H9.40709V9.8335C9.40709 8.84165 8.90475 8.86708 8.90475 8.86708V7.7417C10.514 7.7417 10.4689 9.56646 10.4689 9.56646ZM14.9268 11.0511C14.9268 12.8218 13.0648 12.825 13.0648 12.825C11.1848 12.825 11.245 11.0511 11.245 11.0511C11.245 9.2581 13.0648 9.2581 13.0648 9.2581C14.99 9.2581 14.9268 11.0511 14.9268 11.0511ZM19.0388 12.6596C19.0388 14.4971 17.4295 14.478 17.4295 14.478H16.9993V13.4449H17.267C18.0461 13.4449 17.9679 12.5961 17.9679 12.5961V12.3227C17.625 12.7932 16.9993 12.7677 16.9993 12.7677C15.4682 12.7677 15.4833 11.0383 15.4833 11.0383C15.4833 9.18498 17.0414 9.2581 17.0414 9.2581C17.6521 9.2581 17.9679 9.69998 17.9679 9.69998V9.36936H19.0388V12.6596ZM17.3092 10.304C16.9181 10.304 16.6023 10.6378 16.6023 11.0511C16.6023 11.4643 16.9181 11.7981 17.3092 11.7981C17.7002 11.7981 18.016 11.4643 18.016 11.0511C18.016 10.6378 17.7002 10.304 17.3092 10.304ZM13.0648 10.304C12.6738 10.304 12.358 10.6378 12.358 11.0511C12.358 11.4643 12.6738 11.7981 13.0648 11.7981C13.4559 11.7981 13.7747 11.4643 13.7747 11.0511C13.7747 10.6378 13.4559 10.304 13.0648 10.304Z" fill="white"/>
</g>
</g>
<defs>
<clipPath id="clip0_1364_37342">
<rect width="24" height="24" fill="white"/>
</clipPath>
<clipPath id="clip1_1364_37342">
<rect width="18" height="16" fill="white" transform="translate(3 4)"/>
</clipPath>
</defs>
</svg>
