<svg width="24" height="24" viewBox="0 0 24 24" fill="none" xmlns="http://www.w3.org/2000/svg">
<rect x="0.5" y="0.5" width="23" height="23" rx="11.5" fill="white" stroke="#D7D7D7"/>
<path d="M16.2373 7.7625C15.1498 6.675 13.6573 6 11.9998 6C8.68482 6 6.00732 8.685 6.00732 12C6.00732 15.315 8.68482 18 11.9998 18C14.7973 18 17.1298 16.0875 17.7973 13.5H16.2373C15.6223 15.2475 13.9573 16.5 11.9998 16.5C9.51732 16.5 7.49982 14.4825 7.49982 12C7.49982 9.5175 9.51732 7.5 11.9998 7.5C13.2448 7.5 14.3548 8.0175 15.1648 8.835L12.7498 11.25H17.9998V6L16.2373 7.7625Z" fill="black"/>
</svg>
