<svg width="24" height="24" viewBox="0 0 24 24" fill="none" xmlns="http://www.w3.org/2000/svg">
<path d="M11.0217 3H15.5151C15.5462 3.00006 15.577 3.00625 15.6057 3.01821C15.6344 3.03017 15.6604 3.04767 15.6822 3.06968C15.7042 3.09182 15.7215 3.11806 15.7333 3.14688C15.745 3.17571 15.7509 3.20655 15.7505 3.23764C15.6786 6.96665 11.9869 7.56164 11.9473 7.567H7.17529C7.14255 7.56739 7.1101 7.56094 7.08003 7.54806C7.04996 7.53518 7.02295 7.51616 7.00076 7.49224C6.97856 7.46832 6.96166 7.44003 6.95117 7.4092C6.94067 7.37837 6.93681 7.34569 6.93984 7.31328C7.25797 3.57892 10.9839 3.00893 11.0217 3ZM19.2015 14.9714H17.3322C16.9728 16.9529 15.5798 21 10.2308 21C3.14559 21 3 13.8993 3 13.8993V9.64145C3 9.57937 3.02481 9.51984 3.06896 9.47594C3.11312 9.43205 3.17301 9.40739 3.23546 9.40739H19.2015C19.9437 9.40739 20.6555 9.70049 21.1803 10.2222C21.7052 10.7439 22 11.4516 22 12.1894C22 12.9272 21.7052 13.6348 21.1803 14.1566C20.6555 14.6783 19.9437 14.9714 19.2015 14.9714ZM19.135 10.8225C18.8662 10.8225 18.6035 10.9017 18.3801 11.0502C18.1566 11.1986 17.9825 11.4096 17.8796 11.6564C17.7768 11.9032 17.7499 12.1748 17.8023 12.4368C17.8547 12.6989 17.9841 12.9396 18.1742 13.1285C18.3642 13.3174 18.6063 13.446 18.8699 13.4982C19.1335 13.5503 19.4067 13.5235 19.655 13.4213C19.9033 13.3191 20.1155 13.1459 20.2648 12.9238C20.4141 12.7016 20.4938 12.4405 20.4938 12.1733C20.4938 11.9959 20.4587 11.8203 20.3904 11.6564C20.3221 11.4925 20.222 11.3436 20.0958 11.2182C19.9696 11.0927 19.8198 10.9932 19.655 10.9253C19.4901 10.8575 19.3134 10.8225 19.135 10.8225Z" fill="white"/>
</svg>
