<svg width="24" height="25" viewBox="0 0 24 25" fill="none" xmlns="http://www.w3.org/2000/svg">
<path d="M20 5.5H16.83L15 3.5H9L7.17 5.5H4C2.9 5.5 2 6.4 2 7.5V19.5C2 20.6 2.9 21.5 4 21.5H20C21.1 21.5 22 20.6 22 19.5V7.5C22 6.4 21.1 5.5 20 5.5ZM20 19.5H4V7.5H8.05L9.88 5.5H14.12L15.95 7.5H20V19.5ZM12 8.5C9.24 8.5 7 10.74 7 13.5C7 16.26 9.24 18.5 12 18.5C14.76 18.5 17 16.26 17 13.5C17 10.74 14.76 8.5 12 8.5ZM12 16.5C10.35 16.5 9 15.15 9 13.5C9 11.85 10.35 10.5 12 10.5C13.65 10.5 15 11.85 15 13.5C15 15.15 13.65 16.5 12 16.5Z" fill="#A893FF"/>
</svg>
