<svg width="24" height="24" viewBox="0 0 24 24" fill="none" xmlns="http://www.w3.org/2000/svg">
<path d="M15.9486 17.8285L15.2951 18.1778C14.2824 18.7193 13.1514 19.0017 12.003 19L12 19C8.13387 19 5 15.8661 5 12C5 8.13387 8.13387 5 12 5C15.8661 5 19 8.13387 19 12V12.003C19.0017 13.1514 18.7193 14.2824 18.1778 15.2951L17.8285 15.9486L18.3657 18.3657L15.9486 17.8285ZM21 21L19.9416 16.2381C20.6386 14.9343 21.0022 13.4784 21 12C21 7.0293 16.9707 3 12 3C7.0293 3 3 7.0293 3 12C3 16.9707 7.0293 21 12 21C13.4784 21.0022 14.9343 20.6386 16.2381 19.9416L21 21Z" fill="#424260"/>
</svg>
