<svg width="24" height="24" viewBox="0 0 24 24" fill="none" xmlns="http://www.w3.org/2000/svg">
<path d="M20.9741 9.91193L21.4463 10.4756C22.1846 11.3567 22.1846 12.638 21.4463 13.519L20.9741 14.0827C20.5702 14.5648 20.3744 15.1867 20.4295 15.8123L20.4947 16.5511C20.5981 17.7238 19.8237 18.7949 18.6748 19.0683L18.1662 19.1893C17.5223 19.3425 16.9715 19.7558 16.6457 20.33L16.3855 20.7887C15.779 21.8576 14.4547 22.2892 13.3317 21.7841L12.9846 21.6279C12.3595 21.3467 11.6432 21.3476 11.0189 21.6304L10.6734 21.7869C9.54952 22.2959 8.22167 21.865 7.61405 20.794L7.35661 20.3402C7.03081 19.766 6.47996 19.3527 5.83613 19.1995L5.32699 19.0784C4.1783 18.8051 3.40394 17.7343 3.50706 16.5618L3.57301 15.812C3.62802 15.1866 3.43222 14.5649 3.02845 14.083L2.55367 13.5163C1.81646 12.6364 1.81533 11.3573 2.55097 10.4761L3.03114 9.90094C3.43326 9.41928 3.62802 8.79873 3.57297 8.17456L3.50809 7.43901C3.40445 6.26387 4.18228 5.19113 5.33436 4.92034L5.83166 4.80345C6.47814 4.6515 7.03161 4.23746 7.35853 3.66124L7.61682 3.20599C8.22328 2.13707 9.54754 1.70542 10.6706 2.2106L11.0211 2.36827C11.6442 2.64856 12.3581 2.64856 12.9812 2.36827L13.3317 2.2106C14.4547 1.70542 15.779 2.13707 16.3855 3.20599L16.6457 3.66463C16.9715 4.23887 17.5223 4.65213 18.1662 4.80533L18.6748 4.92637C19.8237 5.19975 20.5981 6.27086 20.4947 7.44353L20.4295 8.18232C20.3744 8.80794 20.5702 9.42986 20.9741 9.91193Z" fill="#572DFF"/>
<g clip-path="url(#clip0_787_22719)">
<path d="M10.2502 16.0833L6.75 12.5103L7.74987 11.4896L10.2513 14.0402L10.2502 14.0413L16.2501 7.91663L17.25 8.93728L11.2501 15.0626L10.2509 16.0826L10.2502 16.0833Z" fill="white"/>
</g>
<defs>
<clipPath id="clip0_787_22719">
<rect width="14" height="14" fill="white" transform="translate(5 5)"/>
</clipPath>
</defs>
</svg>
