<svg width="36" height="36" viewBox="0 0 36 36" fill="none" xmlns="http://www.w3.org/2000/svg">
<path d="M31 17.9984C31 19.1189 29.87 20.0744 29.5938 21.106C29.3177 22.1376 29.8001 23.566 29.2605 24.5024C28.7209 25.4388 27.2544 25.7181 26.4863 26.4863C25.7181 27.2544 25.4515 28.7114 24.5024 29.2605C23.5533 29.8097 22.1757 29.3081 21.1091 29.5938C20.0426 29.8795 19.1221 31 18.0016 31C16.8811 31 15.9257 29.87 14.894 29.5938C13.8624 29.3177 12.434 29.8001 11.4976 29.2605C10.5612 28.7209 10.2819 27.2544 9.51373 26.4863C8.7424 25.7149 7.28861 25.4515 6.73947 24.5024C6.19033 23.5533 6.69186 22.1757 6.40618 21.1091C6.1205 20.0426 5 19.1221 5 18.0016C5 16.8811 6.13002 15.9257 6.40618 14.894C6.68233 13.8624 6.19985 12.434 6.73947 11.4976C7.27909 10.5612 8.74557 10.2819 9.51373 9.51373C10.2819 8.74557 10.5485 7.28861 11.4976 6.73947C12.4467 6.19033 13.8243 6.69186 14.8909 6.40618C15.9574 6.1205 16.8779 5 17.9984 5C19.1189 5 20.0744 6.13002 21.106 6.40618C22.1376 6.68233 23.566 6.19985 24.5024 6.73947C25.4388 7.27909 25.7181 8.74557 26.4863 9.51373C27.2544 10.2819 28.7114 10.5485 29.2605 11.4976C29.8097 12.4467 29.3081 13.8243 29.5938 14.8909C29.8795 15.9574 31 16.8779 31 17.9984Z" fill="#F7F5FF" stroke="#424260" stroke-width="1.6" stroke-linecap="round" stroke-linejoin="round"/>
<path d="M14.6084 22.6076L21.4202 13.4277" stroke="#424260" stroke-width="1.6" stroke-linecap="round" stroke-linejoin="round"/>
<path d="M15.6844 16.9985C16.4102 16.9985 16.9985 16.1686 16.9985 15.1448C16.9985 14.121 16.4102 13.291 15.6844 13.291C14.9586 13.291 14.3703 14.121 14.3703 15.1448C14.3703 16.1686 14.9586 16.9985 15.6844 16.9985Z" stroke="#424260" stroke-width="1.6" stroke-linecap="round" stroke-linejoin="round"/>
<path d="M20.2426 23.2358C20.9683 23.2358 21.5567 22.4059 21.5567 21.3821C21.5567 20.3583 20.9683 19.5283 20.2426 19.5283C19.5168 19.5283 18.9285 20.3583 18.9285 21.3821C18.9285 22.4059 19.5168 23.2358 20.2426 23.2358Z" stroke="#424260" stroke-width="1.6" stroke-linecap="round" stroke-linejoin="round"/>
</svg>
