<svg width="24" height="24" viewBox="0 0 24 24" fill="none" xmlns="http://www.w3.org/2000/svg">
<path d="M1 20V5C1 4.59189 1.24448 4.24087 1.59497 4.08542C1.71879 4.03051 1.85583 4 2 4H22C22.1443 4 22.2815 4.03037 22.4054 4.0851C22.7557 4.2398 23 4.58913 23 4.99711V20.004C23 20.5563 22.5523 21 22 21H2C1.44772 21 1 20.5523 1 20Z" fill="white"/>
<path d="M1.5 4L11.3313 12.8429C11.7115 13.1849 12.2885 13.1849 12.6687 12.8429L22.5 4M23 4.99711C23 8.07068 23 17.0038 23 20.004C23 20.5563 22.5523 21 22 21H2C1.44772 21 1 20.5523 1 20V5C1 4.44772 1.44772 4 2 4H22C22.5523 4 23 4.44482 23 4.99711Z" stroke="#121016" stroke-width="2" stroke-linejoin="bevel"/>
</svg>
