<svg width="28" height="28" viewBox="0 0 28 28" fill="none" xmlns="http://www.w3.org/2000/svg">
<path d="M10.5744 23.3333H4.98044C3.19668 23.3333 1.75 21.8302 1.75 19.9768V6.8565C1.75 5.00313 3.19668 3.5 4.98044 3.5H23.0196C24.8033 3.5 26.25 5.00313 26.25 6.8565V13.4236C26.25 13.9927 25.8146 14.4451 25.2668 14.4451C24.719 14.4451 24.2836 13.9927 24.2836 13.4236V6.8565C24.2836 6.14142 23.7218 5.54309 23.0196 5.54309H4.98044C4.29222 5.54309 3.71636 6.12682 3.71636 6.8565V19.9768C3.71636 20.6919 4.27817 21.2902 4.98044 21.2902H10.5744C11.1222 21.2902 11.5576 21.7426 11.5576 22.3118C11.5576 22.8809 11.1222 23.3333 10.5744 23.3333Z" fill="#572DFF" stroke="#572DFF" stroke-width="0.5"/>
<path d="M14.0072 15.1667C13.7671 15.1667 13.5269 15.0807 13.3433 14.9087L2.66135 6.41833C2.25168 6.04566 2.22343 5.41498 2.59072 4.99931C2.958 4.58364 3.57956 4.55498 3.98922 4.92765L14.0072 12.816L24.0111 4.92765C24.4208 4.55498 25.0423 4.58364 25.4096 4.99931C25.7769 5.41498 25.7486 6.04566 25.339 6.41833L14.6712 14.9087C14.4875 15.0807 14.2474 15.1667 14.0072 15.1667Z" fill="#572DFF" stroke="#572DFF" stroke-width="0.5"/>
<path d="M19.8333 26.8333L18.9859 26.0843C15.9774 23.4073 14 21.6458 14 19.482C14 17.7204 15.4124 16.3333 17.2062 16.3333C18.2232 16.3333 19.1977 16.7911 19.8333 17.5262C20.4689 16.7911 21.4435 16.3333 22.4605 16.3333C24.2542 16.3333 25.6667 17.7204 25.6667 19.482C25.6667 21.6458 23.6893 23.4073 20.6808 26.0843L19.8333 26.8333Z" fill="#572DFF"/>
</svg>
