<svg width="24" height="24" viewBox="0 0 24 24" fill="none" xmlns="http://www.w3.org/2000/svg">
<g clip-path="url(#clip0_292_12510)">
<path d="M11.4472 20.9051C11.786 20.7376 12 20.3951 12 20.0204V14.6999C12 14.4376 12.1054 14.186 12.2929 14.0005L18.414 7.94576C18.789 7.57483 19 7.07135 19 6.54611V3.98915C19 3.44215 18.553 3 18 3H2C1.447 3 1 3.44215 1 3.98915V6.54611C1 7.07135 1.211 7.57483 1.586 7.94576L7.70711 14.0005C7.89464 14.186 8 14.4376 8 14.6999V21.0096C8 21.7449 8.78231 22.2231 9.44721 21.8943L11.4472 20.9051Z" fill="white"/>
<g clip-path="url(#clip1_292_12510)">
<path d="M18.0002 22.1667C15.7 22.1642 13.836 20.3002 13.8335 18V17.9167C13.8793 15.6269 15.7646 13.8034 18.0546 13.8337C20.3446 13.8641 22.1809 15.7371 22.1659 18.0273C22.1509 20.3175 20.2904 22.1663 18.0002 22.1667ZM16.0877 17.8292L15.5002 18.4167L17.1668 20.0834L20.5002 16.75L19.9127 16.1584L17.1668 18.9042L16.0877 17.8292Z" fill="white"/>
</g>
</g>
<defs>
<clipPath id="clip0_292_12510">
<rect width="24" height="24" fill="white"/>
</clipPath>
<clipPath id="clip1_292_12510">
<rect width="10" height="10" fill="white" transform="translate(13 13)"/>
</clipPath>
</defs>
</svg>
