<svg width="24" height="24" viewBox="0 0 24 24" fill="none" xmlns="http://www.w3.org/2000/svg">
<g clip-path="url(#clip0_292_12599)">
<path fill-rule="evenodd" clip-rule="evenodd" d="M17.82 6H19C20.11 6 21 6.89 21 8V19C21 20.11 20.11 21 19 21H5C3.89 21 3 20.11 3 19L3.01 8C3.01 6.89 3.89 6 5 6H6.18C6.07 5.69 6 5.35 6 5C6 3.34 7.34 2 9 2C10.05 2 10.96 2.54 11.5 3.34L12 4.02L12.5 3.35C13.04 2.54 13.95 2 15 2C16.66 2 18 3.34 18 5C18 5.35 17.93 5.69 17.82 6ZM16 5C16 4.45 15.55 4 15 4C14.45 4 14 4.45 14 5C14 5.55 14.45 6 15 6C15.55 6 16 5.55 16 5ZM10 5C10 4.45 9.55 4 9 4C8.45 4 8 4.45 8 5C8 5.55 8.45 6 9 6C9.55 6 10 5.55 10 5ZM5 19V14V8H11V19H5ZM13 19H19V14V8H13V19Z" fill="white"/>
<rect x="20" y="12.5" width="2" height="16" transform="rotate(90 20 12.5)" fill="white"/>
</g>
<defs>
<clipPath id="clip0_292_12599">
<rect width="24" height="24" fill="white"/>
</clipPath>
</defs>
</svg>
