<svg width="36" height="36" viewBox="0 0 36 36" fill="none" xmlns="http://www.w3.org/2000/svg">
<g clip-path="url(#clip0_1731_47631)">
<g clip-path="url(#clip1_1731_47631)">
<path d="M7.07305 10.6182H28.9136C30.0638 10.6182 30.9866 11.4224 30.9866 12.399V29.1732C30.9866 30.1727 30.037 30.9885 28.8735 30.9885H7.11317C5.94959 30.9885 5 30.1727 5 29.1732V12.4105C5 11.4224 5.93621 10.6297 7.07305 10.6297V10.6182Z" fill="#424260"/>
<path d="M29.0072 12.5942H7.00618V29.0467H29.0072V12.5942Z" fill="#F7F5FF"/>
<path d="M19.07 12.0083H16.93V29.6212H19.07V12.0083Z" fill="#424260"/>
<path d="M29.0072 19.8901H7.00618V21.7284H29.0072V19.8901Z" fill="#424260"/>
<path d="M19.3642 9.56104H17.1173V11.4912H19.3642V9.56104Z" fill="#424260"/>
<path d="M23.3789 10.2189C25.6434 9.09577 26.9791 7.44136 26.3623 6.52367C25.7456 5.60597 23.4098 5.7725 21.1453 6.89562C18.8808 8.01873 17.5451 9.67314 18.1618 10.5908C18.7786 11.5085 21.1143 11.342 23.3789 10.2189Z" fill="#F7F5FF"/>
<path d="M19.7654 12.0887C18.1739 12.0887 17.4918 11.4453 17.2243 11.0316C16.93 10.5836 16.5823 9.64146 17.679 8.27424C18.3344 7.47 19.3642 6.68874 20.5947 6.07981C21.8385 5.48238 23.1358 5.10323 24.286 5.01132C26.2119 4.87345 26.9877 5.59727 27.2953 6.04534C28.2582 7.47 26.8272 9.54954 23.9115 10.9972C22.6811 11.6061 21.3704 11.9852 20.2335 12.0657C20.073 12.0657 19.9126 12.0772 19.7654 12.0772V12.0887ZM24.7274 6.8381C24.6471 6.8381 24.5535 6.8381 24.4465 6.8381C23.6307 6.89554 22.6142 7.20575 21.6646 7.66532C20.715 8.13637 19.8992 8.73381 19.4311 9.31976C19.0298 9.81379 19.0432 10.078 19.07 10.101C19.07 10.101 19.3508 10.2734 20.0463 10.2274C20.8621 10.17 21.8786 9.85975 22.8282 9.40018C24.9815 8.33169 25.5432 7.12533 25.4228 6.95299C25.4095 6.93001 25.2089 6.82661 24.7274 6.82661V6.8381Z" fill="#424260"/>
<path d="M17.8552 10.5852C18.472 9.66752 17.1362 8.01312 14.8717 6.89C12.6072 5.76688 10.2715 5.60035 9.6547 6.51805C9.03793 7.43575 10.3737 9.09015 12.6382 10.2133C14.9027 11.3364 17.2384 11.5029 17.8552 10.5852Z" fill="#F7F5FF"/>
<path d="M16.2346 12.089C16.0874 12.089 15.9403 12.089 15.7665 12.0775C14.6296 11.9971 13.3189 11.6179 12.0885 11.009C9.18621 9.56137 7.75514 7.47034 8.7181 6.05718C9.01234 5.6091 9.81481 4.88528 11.7274 5.01166C12.8642 5.09208 14.1749 5.47123 15.4053 6.08015C18.321 7.52779 19.7387 9.60733 18.7891 11.032C18.5082 11.4456 17.8261 12.089 16.2479 12.089H16.2346ZM11.2726 6.83844C10.7778 6.83844 10.5905 6.94184 10.5772 6.96482C10.4568 7.13716 11.0185 8.34352 13.1718 9.41201C14.1214 9.88307 15.1379 10.1818 15.9537 10.2392C16.6492 10.2967 16.9167 10.1473 16.93 10.1129C17.0504 9.94052 16.4887 8.73415 14.3354 7.67715C13.3858 7.20609 12.3693 6.90737 11.5535 6.83844C11.4465 6.83844 11.3529 6.83844 11.2726 6.83844Z" fill="#424260"/>
</g>
</g>
<defs>
<clipPath id="clip0_1731_47631">
<rect width="36" height="36" fill="white"/>
</clipPath>
<clipPath id="clip1_1731_47631">
<rect width="26" height="26" fill="white" transform="translate(5 5)"/>
</clipPath>
</defs>
</svg>
