<svg width="28" height="28" viewBox="0 0 28 28" fill="none" xmlns="http://www.w3.org/2000/svg">
<circle cx="14" cy="14" r="14" fill="#F9FAFD"/>
<g clip-path="url(#clip0_292_12489)">
<path d="M17.2814 7.4375C16.0127 7.4375 14.795 8.02813 14.0002 8.96146C13.2054 8.02813 11.9877 7.4375 10.7189 7.4375C8.47308 7.4375 6.7085 9.20208 6.7085 11.4479C6.7085 14.2042 9.18766 16.45 12.9429 19.8625L14.0002 20.8177L15.0575 19.8552C18.8127 16.45 21.2918 14.2042 21.2918 11.4479C21.2918 9.20208 19.5272 7.4375 17.2814 7.4375ZM14.0731 18.776L14.0002 18.849L13.9272 18.776C10.4564 15.6333 8.16683 13.5552 8.16683 11.4479C8.16683 9.98958 9.26058 8.89583 10.7189 8.89583C11.8418 8.89583 12.9356 9.61771 13.322 10.6167H14.6856C15.0647 9.61771 16.1585 8.89583 17.2814 8.89583C18.7397 8.89583 19.8335 9.98958 19.8335 11.4479C19.8335 13.5552 17.5439 15.6333 14.0731 18.776Z" fill="#C4C4D3"/>
</g>
<defs>
<clipPath id="clip0_292_12489">
<rect width="17.5" height="17.5" fill="white" transform="translate(5.25 5.25)"/>
</clipPath>
</defs>
</svg>
