<svg width="20" height="20" viewBox="0 0 20 20" fill="none" xmlns="http://www.w3.org/2000/svg">
<path d="M9.99175 18.3333C5.39046 18.3287 1.66369 14.5957 1.66675 9.99441C1.66982 5.39312 5.40157 1.66509 10.0029 1.66663C14.6041 1.66816 18.3334 5.39867 18.3334 9.99996C18.3307 14.6044 14.5962 18.3351 9.99175 18.3333ZM3.33342 10.1433C3.37285 13.811 6.36767 16.7579 10.0355 16.7383C13.7034 16.7185 16.6664 13.7395 16.6664 10.0716C16.6664 6.40371 13.7034 3.42477 10.0355 3.40495C6.36767 3.38534 3.37285 6.33226 3.33342 9.99996V10.1433ZM10.8334 14.1666H9.16675V12.5H10.8334V14.1666ZM10.8334 10.8333H9.16675V5.83329H10.8334V10.8333Z" fill="#121016"/>
</svg>
