<svg width="24" height="24" viewBox="0 0 24 24" fill="none" xmlns="http://www.w3.org/2000/svg">
<path fill-rule="evenodd" clip-rule="evenodd" d="M12.002 21.041C9.54908 21.041 9.25365 21.0281 8.30028 20.9864L8.29195 20.986C7.54332 20.9614 6.80439 20.8092 6.10695 20.536C4.90026 20.0664 3.94609 19.1119 3.47695 17.905C3.21426 17.205 3.07257 16.4655 3.05795 15.718C3.00195 14.76 3.00195 14.446 3.00195 12.005C3.00195 9.53873 3.01495 9.25017 3.05792 8.29584L3.05795 8.295C3.07289 7.54853 3.21457 6.81001 3.47695 6.111C3.94558 4.90253 4.9013 3.94718 6.10995 3.479C6.8086 3.21521 7.5473 3.07315 8.29395 3.059C9.24895 3.005 9.56295 3.005 12.002 3.005C14.4674 3.005 14.7635 3.01785 15.6954 3.05829L15.712 3.059C16.4605 3.07327 17.2012 3.21531 17.902 3.479C19.1103 3.94771 20.0658 4.90288 20.535 6.111C20.8021 6.8202 20.9445 7.57026 20.956 8.328C21.012 9.28601 21.012 9.59901 21.012 12.039C21.012 14.479 20.998 14.799 20.956 15.746C20.9411 16.4942 20.799 17.2344 20.536 17.935C20.0656 19.1427 19.11 20.0976 17.902 20.567C17.2022 20.8292 16.4631 20.9709 15.716 20.986C14.761 21.041 14.448 21.041 12.002 21.041ZM12 17C14.7614 17 17 14.7614 17 12C17 9.23858 14.7614 7 12 7C9.23858 7 7 9.23858 7 12C7 14.7614 9.23858 17 12 17ZM15.5 12C15.5 13.933 13.933 15.5 12 15.5C10.067 15.5 8.5 13.933 8.5 12C8.5 10.067 10.067 8.5 12 8.5C13.933 8.5 15.5 10.067 15.5 12ZM17.5 8C18.3284 8 19 7.32843 19 6.5C19 5.67157 18.3284 5 17.5 5C16.6716 5 16 5.67157 16 6.5C16 7.32843 16.6716 8 17.5 8Z" fill="white"/>
</svg>
