<svg width="32" height="32" viewBox="0 0 32 32" fill="none" xmlns="http://www.w3.org/2000/svg">
<rect x="5.5" y="8" width="21" height="16" rx="2" fill="white" stroke="#424260" stroke-width="2"/>
<rect x="7.18347" y="10.2727" width="2.3" height="2.45455" rx="0.3" fill="#424260"/>
<rect x="7.18335" y="14.3636" width="2.3" height="2.45455" rx="0.3" fill="#424260"/>
<rect x="11.0166" y="10.2727" width="2.3" height="2.45455" rx="0.3" fill="#424260"/>
<rect x="11.0166" y="14.3636" width="2.3" height="2.45455" rx="0.3" fill="#424260"/>
<rect x="14.8503" y="10.2727" width="2.3" height="2.45455" rx="0.3" fill="#424260"/>
<rect x="14.8503" y="14.3636" width="2.3" height="2.45455" rx="0.3" fill="#424260"/>
<rect x="18.6836" y="10.2727" width="2.3" height="2.45455" rx="0.3" fill="#424260"/>
<rect x="18.6836" y="14.3636" width="2.3" height="2.45455" rx="0.3" fill="#424260"/>
<rect x="22.5168" y="10.2727" width="2.3" height="2.45455" rx="0.3" fill="#424260"/>
<rect x="22.5168" y="14.3636" width="2.3" height="2.45455" rx="0.3" fill="#424260"/>
<rect x="7.18347" y="19.2727" width="2.3" height="2.45455" rx="0.3" fill="#424260"/>
<rect x="11.0166" y="19.2727" width="9.96667" height="2.45455" rx="0.3" fill="#424260"/>
<rect x="22.5168" y="19.2727" width="2.3" height="2.45455" rx="0.3" fill="#424260"/>
</svg>
