<svg width="24" height="24" viewBox="0 0 24 24" fill="none" xmlns="http://www.w3.org/2000/svg">
<path fill-rule="evenodd" clip-rule="evenodd" d="M19 10.9998C19.5523 10.9998 20 11.4475 20 11.9998C20 16.0791 16.9468 19.4453 13.001 19.9378L13 20.9998C13 21.5521 12.5523 21.9998 12 21.9998C11.4477 21.9998 11 21.5521 11 20.9998L11 19.9379C7.05371 19.4459 4 16.0795 4 11.9998C4 11.4475 4.44772 10.9998 5 10.9998C5.55228 10.9998 6 11.4475 6 11.9998C6 15.3135 8.68629 17.9998 12 17.9998C15.3137 17.9998 18 15.3135 18 11.9998C18 11.4475 18.4477 10.9998 19 10.9998ZM11.9999 2C14.2091 2 15.9999 3.79086 15.9999 6V12C15.9999 14.2091 14.2091 16 11.9999 16C9.79078 16 7.99992 14.2091 7.99992 12V6C7.99992 3.79086 9.79078 2 11.9999 2ZM11.9999 3.99996C10.8953 3.99996 9.99988 4.89539 9.99988 5.99996V12C9.99988 13.1045 10.8953 14 11.9999 14C13.1045 14 13.9999 13.1045 13.9999 12V5.99996C13.9999 4.89539 13.1045 3.99996 11.9999 3.99996Z" fill="#A893FF"/>
</svg>
