<svg width="16" height="16" viewBox="0 0 16 16" fill="none" xmlns="http://www.w3.org/2000/svg">
<g clip-path="url(#clip0_1023_33753)">
<path fill-rule="evenodd" clip-rule="evenodd" d="M12.6667 4.00004H11.88C11.9533 3.79337 12 3.56671 12 3.33337C12 2.22671 11.1067 1.33337 10 1.33337C9.3 1.33337 8.69333 1.69337 8.33333 2.23337L8 2.68004L7.66667 2.22671C7.30667 1.69337 6.7 1.33337 6 1.33337C4.89333 1.33337 4 2.22671 4 3.33337C4 3.56671 4.04667 3.79337 4.12 4.00004H3.33333C2.59333 4.00004 2.00667 4.59337 2.00667 5.33337L2 12.6667C2 13.4067 2.59333 14 3.33333 14H12.6667C13.4067 14 14 13.4067 14 12.6667V5.33337C14 4.59337 13.4067 4.00004 12.6667 4.00004ZM10 2.66671C10.3667 2.66671 10.6667 2.96671 10.6667 3.33337C10.6667 3.70004 10.3667 4.00004 10 4.00004C9.63333 4.00004 9.33333 3.70004 9.33333 3.33337C9.33333 2.96671 9.63333 2.66671 10 2.66671ZM6 2.66671C6.36667 2.66671 6.66667 2.96671 6.66667 3.33337C6.66667 3.70004 6.36667 4.00004 6 4.00004C5.63333 4.00004 5.33333 3.70004 5.33333 3.33337C5.33333 2.96671 5.63333 2.66671 6 2.66671Z" fill="#572DFF"/>
<path fill-rule="evenodd" clip-rule="evenodd" d="M8.66683 4H7.3335V8.33337H2V9.66671H7.3335V14H8.66683V9.66671H14V8.33337H8.66683V4Z" fill="white"/>
</g>
<defs>
<clipPath id="clip0_1023_33753">
<rect width="16" height="16" fill="white"/>
</clipPath>
</defs>
</svg>
