<svg width="16" height="16" viewBox="0 0 16 16" fill="none" xmlns="http://www.w3.org/2000/svg">
<path d="M14.2222 14C14.6937 14 15.1459 13.8194 15.4793 13.4979C15.8127 13.1764 16 12.7404 16 12.2857L16 9.71429C15.5285 9.71429 15.0763 9.53367 14.7429 9.21218C14.4095 8.89069 14.2222 8.45466 14.2222 8C14.2222 7.54534 14.4095 7.10931 14.7429 6.78782C15.0763 6.46633 15.5285 6.28571 16 6.28571L16 3.71429C16 3.25963 15.8127 2.8236 15.4793 2.5021C15.1459 2.18061 14.6937 2 14.2222 2L1.77778 2C1.30628 2 0.854096 2.18061 0.520699 2.5021C0.187301 2.82359 -9.68396e-07 3.25963 -1.00814e-06 3.71429L-1.23294e-06 6.28571C0.471494 6.28571 0.923679 6.46633 1.25708 6.78782C1.59047 7.10931 1.77778 7.54534 1.77778 8C1.77778 8.45466 1.59047 8.89069 1.25708 9.21218C0.923679 9.53367 0.471494 9.71428 -1.53268e-06 9.71428L-1.75748e-06 12.2857C-1.79723e-06 12.7404 0.1873 13.1764 0.520698 13.4979C0.854095 13.8194 1.30628 14 1.77778 14L14.2222 14Z" fill="#40CA67"/>
<path d="M5.66629 8.22695C6.57111 8.22695 7.33259 7.57447 7.33259 6.46809V5.74941C7.33259 4.66194 6.57111 4 5.66629 4C4.76148 4 4 4.66194 4 5.74941V6.46809C4 7.57447 4.76148 8.22695 5.66629 8.22695ZM6.11422 11.8582L11.1937 4.14184H9.92161L4.84211 11.8582H6.11422ZM5.66629 7.23404C5.28107 7.23404 5.00336 6.91253 5.00336 6.39244V5.83452C5.00336 5.31442 5.28107 4.99291 5.66629 4.99291C6.05151 4.99291 6.33819 5.30496 6.33819 5.83452V6.39244C6.33819 6.92199 6.05151 7.23404 5.66629 7.23404ZM10.3337 12C11.2385 12 12 11.3475 12 10.2411V9.52246C12 8.43499 11.2385 7.77305 10.3337 7.77305C9.42889 7.77305 8.66741 8.43499 8.66741 9.52246V10.2411C8.66741 11.3475 9.42889 12 10.3337 12ZM10.3337 11.0071C9.94849 11.0071 9.67077 10.6856 9.67077 10.1655V9.60756C9.67077 9.08747 9.94849 8.76596 10.3337 8.76596C10.7189 8.76596 11.0056 9.07801 11.0056 9.60756V10.1655C11.0056 10.695 10.7189 11.0071 10.3337 11.0071Z" fill="white"/>
</svg>
