<svg width="16" height="16" viewBox="0 0 16 16" fill="none" xmlns="http://www.w3.org/2000/svg">
<circle cx="8" cy="8" r="8" fill="#572DFF"/>
<path d="M7.158 10.2678V12.6316H5.05273V4.21057H8.16309C9.47605 4.21057 10.4087 4.43889 10.9611 4.89554C11.5134 5.34323 11.7896 6.09982 11.7896 7.16533C11.7896 8.22188 11.4953 9.00533 10.9067 9.5157C10.3272 10.0171 9.42625 10.2678 8.20384 10.2678H7.158ZM9.65715 7.16533C9.65715 6.77136 9.54849 6.49379 9.33117 6.33262C9.11386 6.17145 8.72449 6.09087 8.16309 6.09087H7.158V8.44124H8.16309C8.73355 8.44124 9.12291 8.34723 9.33117 8.1592C9.54849 7.97117 9.65715 7.63988 9.65715 7.16533Z" fill="white"/>
</svg>
