<svg width="16" height="16" viewBox="0 0 16 16" fill="none" xmlns="http://www.w3.org/2000/svg">
<circle cx="8" cy="8" r="8" fill="#FF9F0F"/>
<path fill-rule="evenodd" clip-rule="evenodd" d="M4.83714 12.151L3.93489 8.72239H2V7.00811H3.48376L2.85714 4.62695H4.87314L5.66514 8.34695C5.69714 8.47495 5.72914 8.64695 5.76114 8.86295C5.80114 9.07895 5.86514 9.49495 5.95314 10.111C5.97714 9.95895 6.02114 9.66695 6.08514 9.23495C6.15714 8.80295 6.20914 8.51095 6.24114 8.35895L7.00914 4.62695H8.95314L9.74514 8.34695C9.77714 8.47495 9.80914 8.64695 9.84114 8.86295C9.88114 9.07895 9.94514 9.49495 10.0331 10.111C10.0571 9.95895 10.1011 9.66695 10.1651 9.23495C10.2371 8.80295 10.2891 8.51095 10.3211 8.35895L11.0891 4.62695H13.0451L12.4223 7.00811H14V8.72239H11.9739L11.0771 12.151H8.92914L8.44914 9.87095C8.36914 9.48695 8.28914 9.08295 8.20914 8.65895C8.12914 8.23495 8.04514 7.76695 7.95714 7.25495C7.82914 7.96695 7.72914 8.50295 7.65714 8.86295C7.58514 9.22295 7.51714 9.55895 7.45314 9.87095L6.97314 12.151H4.83714Z" fill="white"/>
</svg>
