<svg width="36" height="36" viewBox="0 0 36 36" fill="none" xmlns="http://www.w3.org/2000/svg">
<g clip-path="url(#clip0_1805_37093)">
<path d="M18 31.1883C25.2838 31.1883 31.1884 25.2837 31.1884 17.9999C31.1884 10.7162 25.2838 4.81152 18 4.81152C10.7162 4.81152 4.81159 10.7162 4.81159 17.9999C4.81159 25.2837 10.7162 31.1883 18 31.1883Z" fill="#F7F5FF"/>
<path d="M18 32C10.2797 32 4 25.7203 4 18C4 10.2797 10.2797 4 18 4C25.7203 4 32 10.2797 32 18C32 25.7203 25.7203 32 18 32ZM18 5.62319C11.1725 5.62319 5.62319 11.1725 5.62319 18C5.62319 24.8275 11.1725 30.3768 18 30.3768C24.8275 30.3768 30.3768 24.8275 30.3768 18C30.3768 11.1725 24.8275 5.62319 18 5.62319Z" fill="#424260"/>
<path fill-rule="evenodd" clip-rule="evenodd" d="M14.0841 22.6563L12.9681 18.4157H10.5739V16.2954H12.4101L11.6391 13.3433H14.1348L15.1188 17.9491C15.1594 18.1114 15.2 18.3244 15.2406 18.5882C15.2913 18.852 15.3725 19.3693 15.4739 20.1302C15.5043 19.9375 15.5551 19.5824 15.6362 19.0447C15.7275 18.507 15.7884 18.152 15.829 17.9592L16.7826 13.3433H19.187L20.171 17.9491C20.2116 18.1114 20.2522 18.3244 20.2928 18.5882C20.3435 18.852 20.4246 19.3693 20.5261 20.1302C20.5565 19.9375 20.6072 19.5824 20.6884 19.0447C20.7797 18.507 20.8406 18.152 20.8812 17.9592L21.8348 13.3433H24.2594L23.4884 16.2954H25.4362V18.4157H22.9304L21.8246 22.6563H19.1667L18.5681 19.836C18.4667 19.3592 18.3652 18.8621 18.2739 18.3346C18.1725 17.807 18.071 17.2288 17.9594 16.5998C17.7971 17.4824 17.6754 18.1418 17.5841 18.5882C17.4928 19.0346 17.4116 19.4505 17.3304 19.836L16.7319 22.6563H14.0841Z" fill="#424260"/>
</g>
<defs>
<clipPath id="clip0_1805_37093">
<rect width="28" height="28" fill="white" transform="translate(4 4)"/>
</clipPath>
</defs>
</svg>
