<svg width="30" height="30" viewBox="0 0 30 30" fill="none" xmlns="http://www.w3.org/2000/svg">
<g clip-path="url(#clip0_1729_24904)">
<circle cx="15" cy="15" r="10" fill="#A893FF"/>
<path d="M13.9475 17.8347V20.7895H11.3159V10.2632H15.2039C16.8451 10.2632 18.0109 10.5486 18.7013 11.1194C19.3918 11.679 19.737 12.6247 19.737 13.9566C19.737 15.2773 19.3691 16.2566 18.6334 16.8946C17.909 17.5214 16.7828 17.8347 15.2548 17.8347H13.9475ZM17.0714 13.9566C17.0714 13.4642 16.9356 13.1172 16.664 12.9157C16.3923 12.7143 15.9056 12.6136 15.2039 12.6136H13.9475V15.5515H15.2039C15.9169 15.5515 16.4036 15.434 16.664 15.199C16.9356 14.9639 17.0714 14.5498 17.0714 13.9566Z" fill="white"/>
</g>
<defs>
<clipPath id="clip0_1729_24904">
<rect width="30" height="30" fill="white"/>
</clipPath>
</defs>
</svg>
