<svg width="30" height="30" viewBox="0 0 30 30" fill="none" xmlns="http://www.w3.org/2000/svg">
<g clip-path="url(#clip0_1729_20000)">
<g clip-path="url(#clip1_1729_20000)">
<path d="M18.7344 7.96204L23.6612 12.8143C23.0191 13.3323 22.6058 14.1224 22.6058 15.0128C22.6058 16.4089 23.6177 17.5683 24.9483 17.8151V20.1364L22.9942 22.0629L22.9932 22.0639L18.9053 26.0772L18.9022 26.0803C17.9316 27.0453 16.3537 27.0453 15.383 26.0803L15.3804 26.0777L11.3085 22.0721L11.3084 22.072L6.34189 17.1874C6.96752 16.6682 7.36909 15.8926 7.36909 15.0128C7.36909 13.6256 6.37008 12.4721 5.05205 12.2153V9.85412L6.96366 7.97124L6.96437 7.97054L11.0951 3.91342L11.0964 3.91216C12.0675 2.9535 13.6481 2.9535 14.6192 3.91216L14.6199 3.91293L18.7342 7.96185L18.7344 7.96204Z" fill="#A893FF" stroke="#572DFF" stroke-width="1.4"/>
<path d="M23.3058 15.4918C23.3058 16.7196 24.2769 17.721 25.478 17.721C25.5376 17.721 25.5887 17.721 25.6483 17.7123V20.8819C25.6483 20.9603 25.6483 21.0386 25.6398 21.117C25.5291 22.2751 24.6261 23.2069 23.4846 23.3201C23.408 23.3288 23.3228 23.3288 23.2461 23.3288H6.75427C5.42538 23.3288 4.35205 22.2316 4.35205 20.8819V17.6948C4.35205 17.6948 4.44575 17.7035 4.49687 17.7035C4.7439 17.7035 4.98242 17.66 5.19538 17.5903C6.05575 17.2856 6.66909 16.4583 6.66909 15.4831C6.66909 14.2553 5.69798 13.2539 4.49687 13.2539C4.44575 13.2539 4.39464 13.2539 4.35205 13.2626V10.1104C4.35205 10.0146 4.36057 9.9188 4.36909 9.82302C4.49687 8.69972 5.36575 7.80282 6.47316 7.6722C6.56687 7.66349 6.66057 7.65479 6.75427 7.65479H23.2461C24.575 7.65479 25.6483 8.76067 25.6483 10.1104V13.28C25.5887 13.2713 25.5376 13.2713 25.478 13.2713C25.248 13.2713 25.035 13.3061 24.8221 13.3758C23.9446 13.6544 23.3058 14.4991 23.3058 15.4918Z" fill="#F7F5FF" stroke="#572DFF" stroke-width="1.4" stroke-linecap="round" stroke-linejoin="round"/>
<path d="M11.4478 23.3375V21.0996" stroke="#572DFF" stroke-width="1.4" stroke-linecap="round" stroke-linejoin="round"/>
<path d="M11.4478 9.90147V7.66357" stroke="#572DFF" stroke-width="1.4" stroke-linecap="round" stroke-linejoin="round"/>
<path d="M11.4478 16.8938V14.0986" stroke="#572DFF" stroke-width="1.4" stroke-linecap="round" stroke-linejoin="round"/>
</g>
</g>
<defs>
<clipPath id="clip0_1729_20000">
<rect width="30" height="30" fill="white"/>
</clipPath>
<clipPath id="clip1_1729_20000">
<rect width="23" height="25" fill="white" transform="translate(3.5 2.5)"/>
</clipPath>
</defs>
</svg>
