<svg width="30" height="30" viewBox="0 0 30 30" fill="none" xmlns="http://www.w3.org/2000/svg">
<path d="M18.4879 6.0415H7.33035C4.93377 6.0415 2.99463 8.08317 2.99463 10.604C2.99463 12.3123 3.89956 13.7915 5.22215 14.5728H5.17243L4.00895 18.3644L9.21977 15.1665H18.4779C20.8745 15.1665 22.8136 13.1248 22.8136 10.604C22.8136 8.08317 20.8745 6.0415 18.4779 6.0415H18.4879Z" stroke="#A893FF" stroke-width="1.4" stroke-linecap="round" stroke-linejoin="round"/>
<path d="M14.0825 11.6353H22.6644C24.5041 11.6353 26.0057 13.6769 26.0057 16.1978C26.0057 17.9061 25.3096 19.3853 24.2854 20.1665H24.3251L24.0865 23.9582L21.2026 20.7603H14.0825C12.2428 20.7603 10.7412 18.7186 10.7412 16.1978C10.7412 13.6769 12.2329 11.6353 14.0825 11.6353Z" fill="#572DFF" stroke="#A893FF" stroke-width="1.4" stroke-linecap="round" stroke-linejoin="round"/>
</svg>
