<svg width="30" height="30" viewBox="0 0 30 30" fill="none" xmlns="http://www.w3.org/2000/svg">
<g clip-path="url(#clip0_1735_48388)">
<path d="M22.9537 14.837C22.9537 16.0648 23.9248 17.0662 25.1259 17.0662C25.1856 17.0662 25.2367 17.0662 25.2963 17.0575V20.2271C25.2963 20.3055 25.2963 20.3838 25.2878 20.4622C25.177 21.6203 24.2741 22.5521 23.1326 22.6653C23.0559 22.674 22.9707 22.674 22.8941 22.674H6.40222C5.07333 22.674 4 21.5768 4 20.2271V17.0401C4 17.0401 4.0937 17.0488 4.14481 17.0488C4.39185 17.0488 4.63037 17.0052 4.84333 16.9356C5.7037 16.6308 6.31704 15.8036 6.31704 14.8283C6.31704 13.6005 5.34593 12.5991 4.14481 12.5991C4.0937 12.5991 4.04259 12.5991 4 12.6078V9.45559C4 9.3598 4.00852 9.26402 4.01704 9.16823C4.14481 8.04493 5.0137 7.14803 6.12111 7.01742C6.21481 7.00871 6.30852 7 6.40222 7H22.8941C24.223 7 25.2963 8.10589 25.2963 9.45559V12.6252C25.2367 12.6165 25.1856 12.6165 25.1259 12.6165C24.8959 12.6165 24.683 12.6513 24.47 12.721C23.5926 12.9997 22.9537 13.8443 22.9537 14.837Z" stroke="#A893FF" stroke-width="1.4" stroke-linecap="round" stroke-linejoin="round"/>
<path d="M11.0957 22.6827V20.4448" stroke="#A893FF" stroke-width="1.4" stroke-linecap="round" stroke-linejoin="round"/>
<path d="M11.0957 9.24669V7.00879" stroke="#A893FF" stroke-width="1.4" stroke-linecap="round" stroke-linejoin="round"/>
<path d="M11.0957 16.239V13.4438" stroke="#A893FF" stroke-width="1.4" stroke-linecap="round" stroke-linejoin="round"/>
</g>
<defs>
<clipPath id="clip0_1735_48388">
<rect width="30" height="30" fill="white"/>
</clipPath>
</defs>
</svg>
