<svg width="20" height="20" viewBox="0 0 20 20" fill="none" xmlns="http://www.w3.org/2000/svg">
<path d="M9.99151 18.3333C5.39022 18.3287 1.66344 14.5957 1.66651 9.99441C1.66957 5.39312 5.40133 1.66509 10.0026 1.66663C14.6039 1.66816 18.3332 5.39867 18.3332 9.99996C18.3304 14.6044 14.596 18.3351 9.99151 18.3333ZM3.33317 10.1433C3.3726 13.811 6.36743 16.7579 10.0353 16.7383C13.7031 16.7185 16.6661 13.7395 16.6661 10.0716C16.6661 6.40371 13.7031 3.42477 10.0353 3.40495C6.36743 3.38534 3.3726 6.33226 3.33317 9.99996V10.1433ZM10.8332 14.1666H9.16651V12.5H10.8332V14.1666ZM10.8332 10.8333H9.16651V5.83329H10.8332V10.8333Z" fill="white"/>
</svg>
