<svg width="32" height="32" viewBox="0 0 32 32" fill="none" xmlns="http://www.w3.org/2000/svg">
<g filter="url(#filter0_d_292_12620)">
<circle cx="16" cy="15" r="14" fill="#DFD7FF"/>
</g>
<g clip-path="url(#clip0_292_12620)">
<path d="M16 22.275C15.172 22.2709 14.5007 21.5919 14.4925 20.7503H17.4925C17.4941 20.9541 17.4558 21.1562 17.38 21.3449C17.1832 21.8039 16.7814 22.1386 16.3 22.2445H16.2963H16.285H16.2715H16.2647C16.1776 22.2629 16.089 22.2732 16 22.275ZM22 19.043C22 19.5649 21.5769 19.9879 21.055 19.9879H10.945C10.4231 19.9879 10 19.5649 10 19.043C10 18.6873 10.1997 18.3617 10.5168 18.2006L11.5 17.7009V14.355C11.4605 13.2794 11.6995 12.2121 12.193 11.2598C12.6843 10.3767 13.524 9.74953 14.5 9.53693V9.375C14.5 8.54657 15.1716 7.875 16 7.875C16.8284 7.875 17.5 8.54657 17.5 9.375V9.53693C19.4342 10.005 20.5 11.7157 20.5 14.355V17.7009L21.4832 18.2006C21.8003 18.3617 22 18.6873 22 19.043Z" fill="#572DFF"/>
</g>
<defs>
<filter id="filter0_d_292_12620" x="0" y="0" width="32" height="32" filterUnits="userSpaceOnUse" color-interpolation-filters="sRGB">
<feFlood flood-opacity="0" result="BackgroundImageFix"/>
<feColorMatrix in="SourceAlpha" type="matrix" values="0 0 0 0 0 0 0 0 0 0 0 0 0 0 0 0 0 0 127 0" result="hardAlpha"/>
<feOffset dy="1"/>
<feGaussianBlur stdDeviation="1"/>
<feComposite in2="hardAlpha" operator="out"/>
<feColorMatrix type="matrix" values="0 0 0 0 0 0 0 0 0 0 0 0 0 0 0 0 0 0 0.16 0"/>
<feBlend mode="normal" in2="BackgroundImageFix" result="effect1_dropShadow_292_12620"/>
<feBlend mode="normal" in="SourceGraphic" in2="effect1_dropShadow_292_12620" result="shape"/>
</filter>
<clipPath id="clip0_292_12620">
<rect width="18" height="18" fill="white" transform="translate(7 6)"/>
</clipPath>
</defs>
</svg>
