<svg width="32" height="32" viewBox="0 0 32 32" fill="none" xmlns="http://www.w3.org/2000/svg">
<g filter="url(#filter0_d_292_12617)">
<circle cx="16" cy="15" r="14" fill="white"/>
</g>
<g clip-path="url(#clip0_292_12617)">
<path d="M16 22.275C15.1716 22.275 14.5 21.5924 14.5 20.7503H17.5C17.5 21.5924 16.8284 22.275 16 22.275ZM22 19.043C22 19.5649 21.5769 19.9879 21.055 19.9879H10.945C10.4231 19.9879 10 19.5649 10 19.043C10 18.6873 10.1997 18.3617 10.5168 18.2006L11.5 17.7009V14.355C11.5 11.7157 12.5658 10.0043 14.5 9.53693V9.375C14.5 8.54657 15.1716 7.875 16 7.875C16.8284 7.875 17.5 8.54657 17.5 9.375V9.53693C19.4342 10.0035 20.5 11.7142 20.5 14.355V17.7009L21.4832 18.2006C21.8003 18.3617 22 18.6873 22 19.043ZM16 10.7338C15.0848 10.6738 14.2021 11.0901 13.6562 11.8392C13.1894 12.5898 12.9604 13.4679 13 14.355V18.4632H19V14.355C19.0396 13.4679 18.8105 12.5898 18.3438 11.8392C17.7979 11.0901 16.9152 10.6738 16 10.7338Z" fill="#C4C4D3"/>
</g>
<defs>
<filter id="filter0_d_292_12617" x="0" y="0" width="32" height="32" filterUnits="userSpaceOnUse" color-interpolation-filters="sRGB">
<feFlood flood-opacity="0" result="BackgroundImageFix"/>
<feColorMatrix in="SourceAlpha" type="matrix" values="0 0 0 0 0 0 0 0 0 0 0 0 0 0 0 0 0 0 127 0" result="hardAlpha"/>
<feOffset dy="1"/>
<feGaussianBlur stdDeviation="1"/>
<feComposite in2="hardAlpha" operator="out"/>
<feColorMatrix type="matrix" values="0 0 0 0 0 0 0 0 0 0 0 0 0 0 0 0 0 0 0.16 0"/>
<feBlend mode="normal" in2="BackgroundImageFix" result="effect1_dropShadow_292_12617"/>
<feBlend mode="normal" in="SourceGraphic" in2="effect1_dropShadow_292_12617" result="shape"/>
</filter>
<clipPath id="clip0_292_12617">
<rect width="18" height="18" fill="white" transform="translate(7 6)"/>
</clipPath>
</defs>
</svg>
