<svg width="24" height="24" viewBox="0 0 24 24" fill="none" xmlns="http://www.w3.org/2000/svg">
<g clip-path="url(#clip0_292_12460)">
<path d="M12 21.7C10.8954 21.7 10 20.7898 10 19.6671H14C14 20.7898 13.1046 21.7 12 21.7ZM20 17.3906C20 18.0865 19.4359 18.6506 18.74 18.6506H5.25995C4.5641 18.6506 4 18.0865 4 17.3906C4 16.9164 4.26631 16.4823 4.6891 16.2674L6 15.6012V11.14C6 7.62098 7.421 5.339 10 4.71591V4.5C10 3.39543 10.8954 2.5 12 2.5C13.1046 2.5 14 3.39543 14 4.5V4.71591C16.579 5.33799 18 7.61895 18 11.14V15.6012L19.3109 16.2674C19.7337 16.4823 20 16.9164 20 17.3906ZM12 6.31176C10.7797 6.23167 9.60278 6.78674 8.875 7.78565C8.25255 8.78642 7.94714 9.95722 8 11.14V16.6176H16V11.14C16.0528 9.95722 15.7474 8.78645 15.125 7.78565C14.3972 6.78674 13.2203 6.23167 12 6.31176Z" fill="#572DFF"/>
</g>
<defs>
<clipPath id="clip0_292_12460">
<rect width="24" height="24" fill="white"/>
</clipPath>
</defs>
</svg>
