<svg width="24" height="24" viewBox="0 0 24 24" fill="none" xmlns="http://www.w3.org/2000/svg">
<g clip-path="url(#clip0_292_12457)">
<path d="M12 21.7C10.896 21.6945 10.0009 20.7892 9.99 19.6671H13.99C13.9921 19.9388 13.9411 20.2083 13.84 20.4599C13.5777 21.0718 13.0418 21.5181 12.4 21.6593H12.395H12.38H12.362H12.353C12.2368 21.6839 12.1186 21.6975 12 21.7ZM20 17.3906C20 18.0865 19.4359 18.6506 18.74 18.6506H5.25995C4.5641 18.6506 4 18.0865 4 17.3906C4 16.9164 4.26631 16.4823 4.6891 16.2674L6 15.6012V11.14C5.94732 9.70588 6.26594 8.28283 6.924 7.01313C7.57904 5.83556 8.6987 4.99938 10 4.71591V4.5C10 3.39543 10.8954 2.5 12 2.5C13.1046 2.5 14 3.39543 14 4.5V4.71591C16.579 5.34002 18 7.62098 18 11.14V15.6012L19.3109 16.2674C19.7337 16.4823 20 16.9164 20 17.3906Z" fill="#572DFF"/>
</g>
<defs>
<clipPath id="clip0_292_12457">
<rect width="24" height="24" fill="white"/>
</clipPath>
</defs>
</svg>
