<svg width="24" height="24" viewBox="0 0 24 24" fill="none" xmlns="http://www.w3.org/2000/svg">
<path d="M8.46492 20.535C6.44276 20.535 4.6197 19.3169 3.84572 17.4488C3.07175 15.5806 3.49925 13.4301 4.92892 12L7.05092 9.87802L8.46492 11.292L6.34392 13.413C5.58598 14.171 5.28997 15.2757 5.5674 16.311C5.84482 17.3464 6.65354 18.1551 7.6889 18.4325C8.72426 18.71 9.82898 18.414 10.5869 17.656L12.7079 15.535L14.1219 16.95L12.0009 19.071C11.065 20.0116 9.79178 20.5387 8.46492 20.535ZM9.17192 16.242L7.75792 14.828L14.8289 7.75702L16.2429 9.17102L9.17292 16.241L9.17192 16.242ZM16.9509 14.121L15.5359 12.707L17.6569 10.586C18.4252 9.83035 18.7291 8.72069 18.4532 7.679C18.1772 6.63732 17.3637 5.82367 16.3221 5.54746C15.2805 5.27126 14.1708 5.57494 13.4149 6.34302L11.2929 8.46402L9.87892 7.05002L12.0009 4.92802C13.956 2.98999 17.1099 2.99689 19.0565 4.94347C21.003 6.89005 21.01 10.0439 19.0719 11.999L16.9509 14.12V14.121Z" fill="white"/>
</svg>
