<svg width="36" height="36" viewBox="0 0 36 36" fill="none" xmlns="http://www.w3.org/2000/svg">
<g clip-path="url(#clip0_1805_37109)">
<g clip-path="url(#clip1_1805_37109)">
<mask id="mask0_1805_37109" style="mask-type:luminance" maskUnits="userSpaceOnUse" x="6" y="7" width="24" height="27">
<path d="M30 7H6V34H30V7Z" fill="white"/>
</mask>
<g mask="url(#mask0_1805_37109)">
<path d="M29.076 7H6.924C6.42 7 6 7.42261 6 7.93913V32.873C6 32.9787 6.024 33.0843 6.06 33.1783C6.06 33.2135 6.084 33.237 6.096 33.2604C6.132 33.3426 6.18 33.413 6.24 33.4717C6.24 33.4952 6.24 33.507 6.264 33.5187C6.264 33.5304 6.288 33.5304 6.3 33.5422C6.384 33.6243 6.456 33.683 6.564 33.73C6.66 33.777 6.756 33.8004 6.876 33.8004C6.9 33.8004 6.936 33.8004 6.972 33.8004C7.044 33.8004 7.116 33.8004 7.188 33.7652C7.224 33.7652 7.26 33.7417 7.284 33.73C7.392 33.683 7.476 33.6361 7.56 33.5539L10.044 31.1357L12.06 33.143C12.24 33.3191 12.48 33.413 12.708 33.413C12.936 33.413 13.176 33.3191 13.368 33.143L15.324 31.1357L17.388 33.143C17.748 33.4952 18.324 33.4835 18.672 33.143L20.628 31.1357L22.68 33.143C22.86 33.3191 23.1 33.4013 23.328 33.4013C23.556 33.4013 23.784 33.3191 23.964 33.143L26.016 31.1474L28.428 33.7183C28.524 33.8122 28.62 33.8826 28.74 33.9413C28.86 33.9883 28.968 34.0117 29.1 34.0117C29.22 34.0117 29.328 33.9883 29.448 33.9413C29.544 33.9061 29.628 33.8356 29.712 33.7652H29.736C29.76 33.7535 29.76 33.73 29.772 33.7183C29.832 33.6478 29.88 33.5891 29.916 33.507C29.94 33.4717 29.952 33.4483 29.964 33.413C30 33.3309 30.012 33.2487 30.024 33.1548V7.93913C30.024 7.42261 29.604 7 29.1 7H29.076ZM28.152 30.7248L26.688 29.1752C26.52 28.9874 26.28 28.8935 26.04 28.8817C25.74 28.8817 25.56 28.9757 25.38 29.14L23.292 31.1591L21.216 29.14C21.132 29.0578 21.036 28.9874 20.916 28.9522C20.88 28.9287 20.832 28.9287 20.796 28.9287C20.724 28.9052 20.652 28.8817 20.58 28.8817C20.508 28.8817 20.424 28.9052 20.34 28.9287C20.304 28.9287 20.268 28.9287 20.232 28.9522C20.112 28.9991 20.016 29.0696 19.92 29.1517L17.964 31.1474L15.912 29.14C15.54 28.7878 14.964 28.7996 14.616 29.1517L12.672 31.1357L10.668 29.1517C10.308 28.7996 9.744 28.7878 9.396 29.14L7.824 30.6778V8.87826H28.14V30.7248H28.152Z" fill="#424260"/>
<path d="M7.836 8.8667V30.6663L9.42 29.1284C9.768 28.7763 10.332 28.788 10.692 29.1402L12.696 31.1358L14.64 29.1402C15 28.788 15.576 28.7763 15.936 29.1284L17.988 31.1476L19.944 29.1402C20.04 29.058 20.148 28.9876 20.256 28.9406C20.292 28.9289 20.328 28.9289 20.364 28.9171C20.436 28.8937 20.52 28.8702 20.604 28.8702C20.688 28.8702 20.748 28.8937 20.82 28.9171C20.856 28.9171 20.904 28.9171 20.94 28.9406C21.048 28.9758 21.156 29.0463 21.24 29.1284L23.304 31.1593L25.392 29.1284C25.56 28.9641 25.752 28.8702 26.052 28.8702C26.292 28.8702 26.52 28.9758 26.688 29.1637L28.152 30.725V8.8667H7.836Z" fill="#F7F5FF"/>
</g>
<path fill-rule="evenodd" clip-rule="evenodd" d="M15.084 22.918L14.256 19.8306H12.48V18.2811H13.848L13.272 16.1328H15.132L15.864 19.4785C15.888 19.5959 15.924 19.7485 15.948 19.948C15.984 20.1476 16.044 20.5115 16.128 21.075C16.152 20.9341 16.188 20.6759 16.248 20.2885C16.32 19.9011 16.368 19.6311 16.392 19.5019L17.1 16.1446H18.888L19.62 19.4902C19.644 19.6076 19.68 19.7602 19.704 19.9598C19.74 20.1593 19.8 20.5232 19.884 21.0867C19.908 20.9459 19.944 20.6876 20.004 20.3002C20.076 19.9128 20.124 19.6428 20.148 19.5137L20.856 16.1563H22.656L22.08 18.3046H23.532V19.8541H21.672L20.844 22.9415H18.864L18.42 20.8872C18.348 20.5467 18.276 20.1828 18.204 19.7954C18.132 19.408 18.048 18.9972 17.976 18.5276C17.856 19.1732 17.772 19.6546 17.7 19.9715C17.628 20.3002 17.568 20.5937 17.508 20.8754L17.064 22.9298H15.096L15.084 22.918Z" fill="#424260"/>
</g>
</g>
<defs>
<clipPath id="clip0_1805_37109">
<rect width="36" height="36" fill="white"/>
</clipPath>
<clipPath id="clip1_1805_37109">
<rect width="24" height="27" fill="white" transform="translate(6 7)"/>
</clipPath>
</defs>
</svg>
