<svg width="16" height="16" viewBox="0 0 16 16" fill="none" xmlns="http://www.w3.org/2000/svg">
<g clip-path="url(#clip0_712_19546)">
<path fill-rule="evenodd" clip-rule="evenodd" d="M13.9445 7.75C14.3034 7.75 14.4807 7.31393 14.2236 7.06349L8.27916 1.27195C8.12384 1.12063 7.87622 1.12063 7.7209 1.27195L1.77645 7.0635C1.5194 7.31393 1.69671 7.75 2.05559 7.75L3.60003 7.75C3.82094 7.75 4.00003 7.92909 4.00003 8.15L4.00003 13.6C4.00003 13.8209 4.17912 14 4.40003 14L11.6 14C11.8209 14 12 13.8209 12 13.6L12 8.15C12 7.92909 12.1791 7.75 12.4 7.75L13.9445 7.75Z" fill="#572DFF"/>
</g>
<defs>
<clipPath id="clip0_712_19546">
<rect width="16" height="16" fill="white" transform="translate(0 16) rotate(-90)"/>
</clipPath>
</defs>
</svg>
