<svg width="16" height="16" viewBox="0 0 16 16" fill="none" xmlns="http://www.w3.org/2000/svg">
<g clip-path="url(#clip0_712_19557)">
<path fill-rule="evenodd" clip-rule="evenodd" d="M2.05553 8.25C1.69665 8.25 1.51934 8.68607 1.77639 8.9365L7.72083 14.728C7.87616 14.8794 8.12378 14.8794 8.2791 14.728L14.2235 8.9365C14.4806 8.68607 14.3033 8.25 13.9444 8.25L12.4 8.25C12.1791 8.25 12 8.07091 12 7.85L12 2.4C12 2.17909 11.8209 2 11.6 2L4.39997 2C4.17906 2 3.99997 2.17909 3.99997 2.4L3.99997 7.85C3.99997 8.07091 3.82088 8.25 3.59997 8.25L2.05553 8.25Z" fill="#572DFF"/>
</g>
<defs>
<clipPath id="clip0_712_19557">
<rect width="16" height="16" fill="white" transform="translate(16) rotate(90)"/>
</clipPath>
</defs>
</svg>
