<svg width="20" height="20" viewBox="0 0 20 20" fill="none" xmlns="http://www.w3.org/2000/svg">
<g clip-path="url(#clip0_292_12626)">
<path fill-rule="evenodd" clip-rule="evenodd" d="M1.6665 9.99996C1.6665 5.39996 5.39984 1.66663 9.99984 1.66663C14.5998 1.66663 18.3332 5.39996 18.3332 9.99996C18.3332 14.6 14.5998 18.3333 9.99984 18.3333C5.39984 18.3333 1.6665 14.6 1.6665 9.99996ZM10.7757 7.02954C10.283 6.91625 9.44384 7.12604 8.48498 7.65802L7.51469 5.90915C8.55583 5.33152 9.96665 4.79131 11.2239 5.08041C11.9103 5.23823 12.5199 5.63834 12.9331 6.32016C13.3272 6.97028 13.4998 7.80408 13.4998 8.78359C13.4998 9.22906 13.2495 9.538 13.137 9.66355C12.9965 9.8203 12.8299 9.95112 12.6844 10.0534C12.3879 10.2619 12.0221 10.4597 11.6948 10.6224C11.4503 10.7439 11.208 10.8552 10.9998 10.9471V11.5H8.99984V9.60267L9.63318 9.35323L9.63789 9.35136L9.65595 9.34416C9.67231 9.3376 9.69708 9.32761 9.72904 9.31456C9.79303 9.28841 9.88548 9.2501 9.99683 9.20242C10.221 9.10644 10.515 8.97537 10.8048 8.83133C11.0782 8.69546 11.3192 8.56214 11.4902 8.44746C11.4563 7.88396 11.3386 7.54789 11.2228 7.35681C11.1048 7.16212 10.9644 7.07293 10.7757 7.02954ZM8.99984 14.5V12.5H10.9998V14.5H8.99984Z" fill="white"/>
</g>
<defs>
<clipPath id="clip0_292_12626">
<rect width="20" height="20" fill="white"/>
</clipPath>
</defs>
</svg>
