<svg width="36" height="36" viewBox="0 0 36 36" fill="none" xmlns="http://www.w3.org/2000/svg">
<g clip-path="url(#clip0_1731_47655)">
<g clip-path="url(#clip1_1731_47655)">
<path d="M31.2669 9.92789C30.3733 8.85768 29.4339 8.64137 28.7465 8.67552C28.0362 8.69829 27.3831 8.97154 26.8447 9.32448V7.82163H27.83C28.334 7.82163 28.7465 7.41176 28.7465 6.91082C28.7465 6.40987 28.334 6 27.83 6H8.18183C7.67774 6 7.2653 6.39848 7.2653 6.91082C7.2653 7.42315 7.67774 7.82163 8.18183 7.82163H9.15565V9.32448C8.61719 8.97154 7.96416 8.69829 7.25385 8.67552C6.60082 8.65275 5.627 8.85768 4.73339 9.92789C4.05745 10.7362 3.83977 11.6926 4.11473 12.6945C4.71047 14.926 7.56318 16.8956 9.30458 17.6698C9.72848 19.0247 11.4126 22.5313 17.0951 22.8842V25.0702H12.6041C12.1 25.0702 11.6876 25.4801 11.6876 25.981V28.1784H9.15565C8.65156 28.1784 8.23912 28.5882 8.23912 29.0892C8.23912 29.5901 8.65156 30 9.15565 30H18.8136C19.3177 30 19.7301 29.5901 19.7301 29.0892C19.7301 28.5882 19.3177 28.1784 18.8136 28.1784H13.5206V26.8918H22.5255V29.0892C22.5255 29.5901 22.938 30 23.4421 30H26.8447C27.3488 30 27.7612 29.5901 27.7612 29.0892C27.7612 28.5882 27.3488 28.1784 26.8447 28.1784H24.3586V25.981C24.3586 25.4801 23.9462 25.0702 23.4421 25.0702H18.9282V22.8842C24.1065 22.5427 25.9511 19.389 26.5583 17.7381C28.2768 16.9981 31.2784 14.9829 31.8856 12.6945C32.1606 11.6926 31.9429 10.7362 31.2669 9.92789ZM9.15565 15.5408C7.81522 14.7552 6.21129 13.4345 5.87905 12.2277C5.76448 11.7951 5.84468 11.4421 6.14255 11.0892C6.64665 10.4858 7.05908 10.4972 7.19656 10.4972C7.94124 10.5199 8.75466 11.2713 9.15565 11.7381V15.5408ZM25.0116 16.5427C24.9085 17.0892 24.0034 21.1082 18.0116 21.1082C12.0198 21.1082 11.1033 17.4421 10.9887 16.9298V7.82163H25.0116V16.5427ZM30.1213 12.2277C29.789 13.4345 28.1851 14.7552 26.8447 15.5522V11.7381C27.2457 11.2827 28.0591 10.5199 28.8038 10.4972C28.9412 10.4972 29.3537 10.4858 29.8578 11.0892C30.1556 11.4421 30.2358 11.7951 30.1213 12.2277Z" fill="#444444"/>
<path d="M10.9885 7.82178V16.9299C11.1031 17.4423 12.0884 21.1083 18.0115 21.1083C23.9345 21.1083 24.9083 17.0893 25.0115 16.5428V7.82178H10.9885ZM20.3142 17.3512L18.0115 15.689L15.6972 17.3512L16.5794 14.6529L14.2766 12.9907H17.1293L18.0115 10.2924L18.8936 12.9907H21.7463L19.4321 14.6529L20.3142 17.3512Z" fill="#F7F5FF"/>
<path d="M19.4321 14.6525L20.3142 17.3508L18.0115 15.6886L15.6972 17.3508L16.5794 14.6525L14.2766 12.9903H17.1293L18.0115 10.292L18.8936 12.9903H21.7463L19.4321 14.6525Z" fill="#444444"/>
</g>
</g>
<defs>
<clipPath id="clip0_1731_47655">
<rect width="28" height="24" fill="white" transform="translate(4 6)"/>
</clipPath>
<clipPath id="clip1_1731_47655">
<rect width="28" height="24" fill="white" transform="translate(4 6)"/>
</clipPath>
</defs>
</svg>
