<svg width="16" height="16" viewBox="0 0 16 16" fill="none" xmlns="http://www.w3.org/2000/svg">
<path d="M10.6324 11.8856L10.1968 12.1186C9.52159 12.4795 8.7676 12.6678 8.002 12.6667L8 12.6667C5.42258 12.6667 3.33333 10.5774 3.33333 8C3.33333 5.42258 5.42258 3.33333 8 3.33333C10.5774 3.33333 12.6667 5.42258 12.6667 8V8.002C12.6678 8.7676 12.4795 9.52159 12.1186 10.1968L11.8856 10.6324L12.2438 12.2438L10.6324 11.8856ZM14 14L13.2944 10.8254C13.7591 9.95623 14.0015 8.98558 14 8C14 4.6862 11.3138 2 8 2C4.6862 2 2 4.6862 2 8C2 11.3138 4.6862 14 8 14C8.98558 14.0015 9.95623 13.7591 10.8254 13.2944L14 14Z" fill="#9393A7"/>
</svg>
