<svg width="20" height="21" viewBox="0 0 20 21" fill="none" xmlns="http://www.w3.org/2000/svg">
<path d="M7.3479 3.23914H12.6522C13.7568 3.23914 14.6522 4.13457 14.6522 5.23914V10.8044H5.3479V5.23914C5.3479 4.13457 6.24333 3.23914 7.3479 3.23914Z" stroke="#424260" stroke-width="2"/>
<path d="M8.21729 11.0652H11.7825C12.8871 11.0652 13.7825 11.9606 13.7825 13.0652V14.2826H6.21729V13.0652C6.21729 11.9606 7.11272 11.0652 8.21729 11.0652Z" stroke="#424260" stroke-width="2"/>
<path d="M4.47835 16.587L4.47835 14.5435L6.82617 14.5435L6.82617 16.587C6.82617 17.2353 6.30059 17.7609 5.65226 17.7609C5.00392 17.7609 4.47835 17.2353 4.47835 16.587Z" stroke="#424260" stroke-width="2"/>
<path d="M13.1739 16.587L13.1739 14.5435L15.5217 14.5435L15.5217 16.587C15.5217 17.2353 14.9961 17.7609 14.3478 17.7609C13.6995 17.7609 13.1739 17.2353 13.1739 16.587Z" stroke="#424260" stroke-width="2"/>
<path d="M15.9131 8.45654H16.2609C16.8132 8.45654 17.2609 8.90426 17.2609 9.45654V14.2826H14.9131V9.45654C14.9131 8.90426 15.3608 8.45654 15.9131 8.45654Z" stroke="#424260" stroke-width="2"/>
<path d="M3.73901 8.45654H4.08684C4.63912 8.45654 5.08684 8.90426 5.08684 9.45654V14.2826H2.73901V9.45654C2.73901 8.90426 3.18673 8.45654 3.73901 8.45654Z" stroke="#424260" stroke-width="2"/>
</svg>
