<svg width="36" height="36" viewBox="0 0 36 36" fill="none" xmlns="http://www.w3.org/2000/svg">
<path d="M24 13.7856V11.4773C24 10.758 23.8448 10.0458 23.5433 9.38123C23.2417 8.7167 22.7998 8.11288 22.2426 7.60427C21.6855 7.09565 21.0241 6.6922 20.2961 6.41694C19.5681 6.14167 18.7879 6 18 6C17.2121 6 16.4319 6.14167 15.7039 6.41694C14.9759 6.6922 14.3145 7.09565 13.7574 7.60427C13.2002 8.11288 12.7583 8.7167 12.4567 9.38123C12.1552 10.0458 12 10.758 12 11.4773V16.9546C12 17.1621 12.0903 17.3612 12.2511 17.5079C12.4118 17.6546 12.6298 17.7371 12.8571 17.7371C13.0845 17.7371 13.3025 17.6546 13.4632 17.5079C13.624 17.3612 13.7143 17.1621 13.7143 16.9546V15.3505H22.2857V13.7856H13.7143V11.4773C13.7143 10.4397 14.1658 9.44456 14.9695 8.71085C15.7733 7.97714 16.8634 7.56495 18 7.56495C19.1366 7.56495 20.2267 7.97714 21.0305 8.71085C21.8342 9.44456 22.2857 10.4397 22.2857 11.4773V16.9155C22.2857 17.123 22.376 17.322 22.5368 17.4688C22.6975 17.6155 22.9155 17.698 23.1429 17.698C23.3702 17.698 23.5882 17.6155 23.7489 17.4688C23.9097 17.322 24 17.123 24 16.9155V15.3505H28.2857V29.4351H7.71429V15.3505H12V13.7856H6V29.5055C6 29.9018 6.17248 30.282 6.47951 30.5623C6.78653 30.8425 7.20295 31 7.63714 31H28.3629C28.7971 31 29.2135 30.8425 29.5205 30.5623C29.8275 30.282 30 29.9018 30 29.5055V13.7856H24Z" fill="#424260"/>
</svg>
