<svg width="28" height="28" viewBox="0 0 28 28" fill="none" xmlns="http://www.w3.org/2000/svg">
<path d="M12.9691 3.11707C13.2935 2.0721 14.7063 2.0721 15.0308 3.11707L17.0418 9.59373C17.1869 10.061 17.6031 10.3775 18.0727 10.3775H24.5806C25.6306 10.3775 26.0672 11.7834 25.2177 12.4293L19.9527 16.4321C19.5728 16.7209 19.4138 17.2328 19.5589 17.7002L21.57 24.1768C21.8945 25.2218 20.7515 26.0907 19.902 25.4449L14.637 21.4421C14.2571 21.1533 13.7427 21.1533 13.3628 21.4421L8.09781 25.4449C7.24833 26.0907 6.10537 25.2218 6.42984 24.1768L8.44089 17.7002C8.586 17.2328 8.42704 16.7209 8.04714 16.4321L2.78213 12.4293C1.93266 11.7834 2.36923 10.3775 3.41924 10.3775H9.92714C10.3967 10.3775 10.8129 10.0611 10.958 9.59373L12.9691 3.11707Z" fill="#572DFF"/>
</svg>
