<svg width="36" height="36" viewBox="0 0 36 36" fill="none" xmlns="http://www.w3.org/2000/svg">
<path d="M13.6667 29L13.6667 26.1429L13.6667 29ZM13.6667 20.4286L13.6667 17.5714L13.6667 20.4286ZM13.6667 11.8571L13.6667 9L13.6667 11.8571ZM28.1111 29C28.8773 29 29.6121 28.699 30.1539 28.1632C30.6956 27.6273 31 26.9006 31 26.1429L31 21.8571C30.2338 21.8571 29.499 21.5561 28.9572 21.0203C28.4155 20.4845 28.1111 19.7578 28.1111 19C28.1111 18.2422 28.4155 17.5155 28.9572 16.9797C29.499 16.4439 30.2338 16.1429 31 16.1429L31 11.8571C31 11.0994 30.6956 10.3727 30.1539 9.83684C29.6121 9.30102 28.8773 9 28.1111 9L7.88889 9C7.12271 9 6.38791 9.30102 5.84614 9.83684C5.30437 10.3727 5 11.0994 5 11.8571L5 16.1429C5.76618 16.1429 6.50098 16.4439 7.04275 16.9797C7.58453 17.5155 7.88889 18.2422 7.88889 19C7.88889 19.7578 7.58453 20.4845 7.04275 21.0203C6.50098 21.5561 5.76618 21.8571 5 21.8571L5 26.1429C5 26.9006 5.30437 27.6273 5.84614 28.1632C6.38791 28.699 7.12271 29 7.88889 29L28.1111 29Z" fill="#F7F5FF" stroke="#424260" stroke-width="1.6" stroke-linecap="round" stroke-linejoin="round"/>
</svg>
