<svg width="24" height="24" viewBox="0 0 24 24" fill="none" xmlns="http://www.w3.org/2000/svg">
<g clip-path="url(#clip0_1093_37490)">
<!-- <path fill-rule="evenodd" clip-rule="evenodd" d="M8.74877 7.65476C8.16946 7.65476 7.68473 8.14286 7.68473 8.72619V11.2857C7.68473 11.869 8.16946 12.3571 8.74877 12.3571C9.32808 12.3571 9.81281 11.869 9.81281 11.2857V8.72619C9.81281 8.14286 9.3399 7.65476 8.74877 7.65476ZM8.74877 7.65476C8.16946 7.65476 7.68473 8.14286 7.68473 8.72619V11.2857C7.68473 11.869 8.16946 12.3571 8.74877 12.3571C9.32808 12.3571 9.81281 11.869 9.81281 11.2857V8.72619C9.81281 8.14286 9.3399 7.65476 8.74877 7.65476ZM22.936 8.52381C23.2197 8.52381 23.4916 8.41667 23.6926 8.21429C23.8936 8.01191 24 7.7381 24 7.45238V3.63095C24 2.66667 23.6217 1.7381 22.936 1.05952C22.2621 0.380952 21.3399 0 20.3823 0H3.62956C2.67192 0 1.74975 0.380952 1.07586 1.05952C0.390148 1.7381 0 2.66667 0 3.63095V7.45238C0 7.7381 0.118227 8.01191 0.319212 8.21429C0.520197 8.41667 0.792118 8.52381 1.06404 8.52381C1.46601 8.52381 1.85616 8.69048 2.12808 8.96429C2.41182 9.2381 2.56552 9.61905 2.56552 10C2.56552 10.381 2.41182 10.7738 2.12808 11.0476C1.85616 11.3214 1.46601 11.4881 1.06404 11.4881C0.484729 11.4881 0 11.9643 0 12.5595V16.381C0 17.3452 0.390148 18.2738 1.07586 18.9524C1.74975 19.631 2.67192 20 3.62956 20H20.3823C21.3399 20 22.2621 19.631 22.936 18.9524C23.6217 18.2738 24 17.3452 24 16.381V12.5595C24 11.9643 23.5271 11.4881 22.936 11.4881C22.5458 11.4881 22.1557 11.3214 21.8837 11.0476C21.6 10.7738 21.4463 10.3929 21.4463 10C21.4463 9.60714 21.6 9.2381 21.8837 8.96429C22.1557 8.69048 22.5458 8.52381 22.936 8.52381ZM21.8719 6.54762C21.3163 6.71429 20.8079 7.02381 20.3823 7.44048C19.6966 8.11905 19.3182 9.03572 19.3182 10C19.3182 10.9643 19.6966 11.8929 20.3823 12.5714C20.8079 12.9881 21.3163 13.2976 21.8719 13.4643V16.381C21.8719 16.7738 21.7182 17.1429 21.4463 17.4286C21.1626 17.7024 20.7842 17.8571 20.3823 17.8571H9.81281V16.381C9.81281 15.7976 9.3399 15.3095 8.74877 15.3095C8.15764 15.3095 7.68473 15.7976 7.68473 16.381V17.8571H3.62956C3.22759 17.8571 2.84926 17.7024 2.56552 17.4286C2.2936 17.1429 2.12808 16.7738 2.12808 16.381V13.4643C2.69557 13.2976 3.20394 12.9881 3.62956 12.5714C4.31527 11.8929 4.6936 10.9762 4.6936 10C4.6936 9.02381 4.31527 8.11905 3.62956 7.44048C3.20394 7.02381 2.69557 6.71429 2.12808 6.54762V3.63095C2.12808 3.2381 2.2936 2.86905 2.56552 2.58333C2.84926 2.30952 3.22759 2.14286 3.62956 2.14286H7.68473V3.63095C7.68473 4.21429 8.16946 4.70238 8.74877 4.70238C9.32808 4.70238 9.81281 4.21429 9.81281 3.63095V2.14286H20.3823C20.7842 2.14286 21.1626 2.30952 21.4463 2.58333C21.7182 2.86905 21.8719 3.2381 21.8719 3.63095V6.54762ZM8.74877 7.65476C8.16946 7.65476 7.68473 8.14286 7.68473 8.72619V11.2857C7.68473 11.869 8.16946 12.3571 8.74877 12.3571C9.32808 12.3571 9.81281 11.869 9.81281 11.2857V8.72619C9.81281 8.14286 9.3399 7.65476 8.74877 7.65476Z" fill="white"/> -->
<path fill-rule="evenodd" clip-rule="evenodd" d="M21.8719 6.54783V3.63116C21.8719 3.2383 21.7182 2.86926 21.4463 2.58354C21.1626 2.30973 20.7842 2.14307 20.3823 2.14307H9.81281V3.63116C9.81281 4.21449 9.33991 4.70259 8.74877 4.70259C8.15764 4.70259 7.68473 4.21449 7.68473 3.63116V2.14307H3.62956C3.22759 2.14307 2.84926 2.30973 2.56552 2.58354C2.2936 2.86926 2.12808 3.2383 2.12808 3.63116V6.54783C2.69557 6.7145 3.20394 7.02402 3.62956 7.44069C4.31527 8.11926 4.6936 9.03592 4.6936 10.0002C4.6936 10.9645 4.31527 11.8931 3.62956 12.5716C3.20394 12.9883 2.69557 13.2978 2.12808 13.4645V16.3812C2.12808 16.774 2.2936 17.1431 2.56552 17.4288C2.84926 17.7026 3.22759 17.8574 3.62956 17.8574H7.68473V16.3812C7.68473 15.7978 8.16946 15.3097 8.74877 15.3097C9.32808 15.3097 9.81281 15.7978 9.81281 16.3812V17.8574H20.3823C20.7842 17.8574 21.1626 17.7026 21.4463 17.4288C21.7182 17.1431 21.8719 16.774 21.8719 16.3812V13.4645C21.3163 13.2978 20.8079 12.9883 20.3823 12.5716C19.6966 11.8931 19.3182 10.9764 19.3182 10.0002C19.3182 9.02402 19.6966 8.11926 20.3823 7.44069C20.8079 7.02402 21.3163 6.7145 21.8719 6.54783ZM9.81281 11.2859C9.81281 11.8693 9.33991 12.3574 8.74877 12.3574C8.15764 12.3574 7.68473 11.8693 7.68473 11.2859V8.7264C7.68473 8.14307 8.16946 7.65497 8.74877 7.65497C9.32808 7.65497 9.81281 8.14307 9.81281 8.7264V11.2859Z" fill="black"/>
</g>
<defs>
<clipPath id="clip0_1093_37490">
<rect width="24" height="24" fill="white"/>
</clipPath>
</defs>
</svg>
