<svg width="24" height="24" viewBox="0 0 24 24" fill="none" xmlns="http://www.w3.org/2000/svg">
<path fill-rule="evenodd" clip-rule="evenodd" d="M2.50183 4.4877C3.07769 3.91817 3.85662 3.59998 4.66676 3.59998L8.99988 3.59998L18.8334 3.59998C19.6436 3.59998 20.4225 3.91818 20.9984 4.4877C21.5746 5.05757 21.9001 5.83259 21.9001 6.64283V9.85712C21.9001 10.0958 21.8053 10.3247 21.6365 10.4935C21.4677 10.6623 21.2388 10.7571 21.0001 10.7571C20.661 10.7571 20.3377 10.8905 20.1009 11.1247C19.8644 11.3585 19.7334 11.6736 19.7334 12C19.7334 12.3264 19.8644 12.6414 20.1009 12.8753C20.3377 13.1095 20.661 13.2428 21.0001 13.2428C21.4972 13.2428 21.9001 13.6458 21.9001 14.1428V17.3571C21.9001 18.1674 21.5746 18.9424 20.9984 19.5122C20.4225 20.0818 19.6436 20.4 18.8334 20.4L4.66676 20.4C3.85662 20.4 3.07769 20.0818 2.50183 19.5122C1.92564 18.9424 1.6001 18.1674 1.6001 17.3571L1.6001 14.1428C1.6001 13.6458 2.00304 13.2428 2.5001 13.2428C2.83923 13.2428 3.16249 13.1095 3.39929 12.8753C3.63576 12.6414 3.76676 12.3264 3.76676 12C3.76676 11.6736 3.63576 11.3585 3.39929 11.1246C3.16249 10.8905 2.83923 10.7571 2.5001 10.7571C2.2614 10.7571 2.03248 10.6623 1.8637 10.4935C1.69492 10.3247 1.6001 10.0958 1.6001 9.85712L1.6001 6.64283C1.6001 5.83259 1.92564 5.05756 2.50183 4.4877ZM9.9001 18.6V17.3571C9.9001 16.8601 9.49715 16.4571 9.0001 16.4571C8.50304 16.4571 8.1001 16.8601 8.1001 17.3571V18.6H4.66676C4.32763 18.6 4.00437 18.4666 3.76757 18.2324C3.53111 17.9986 3.4001 17.6835 3.4001 17.3571L3.4001 14.9088C3.87253 14.7649 4.30785 14.5084 4.66503 14.1551C5.24123 13.5852 5.56676 12.8102 5.56676 12C5.56676 11.1897 5.24123 10.4147 4.66503 9.84484C4.30785 9.49158 3.87253 9.23502 3.4001 9.09111L3.4001 6.64283C3.4001 6.31644 3.53111 6.00137 3.76757 5.76751C4.00437 5.53331 4.32764 5.39998 4.66676 5.39998L8.1001 5.39998V6.64283C8.1001 7.13989 8.50304 7.54283 9.0001 7.54283C9.49716 7.54283 9.9001 7.13989 9.9001 6.64283V5.39998L18.8334 5.39998C19.1726 5.39998 19.4958 5.53331 19.7326 5.76751C19.9691 6.00137 20.1001 6.31644 20.1001 6.64283V9.09111C19.6277 9.23502 19.1923 9.49159 18.8352 9.84485C18.259 10.4147 17.9334 11.1897 17.9334 12C17.9334 12.8102 18.259 13.5852 18.8352 14.1551C19.1923 14.5084 19.6277 14.7649 20.1001 14.9088V17.3571C20.1001 17.6835 19.9691 17.9986 19.7326 18.2324C19.4958 18.4666 19.1726 18.6 18.8334 18.6L9.9001 18.6ZM9.0001 10.0285C9.49715 10.0285 9.9001 10.4315 9.9001 10.9285V13.0714C9.9001 13.5685 9.49715 13.9714 9.0001 13.9714C8.50304 13.9714 8.1001 13.5685 8.1001 13.0714V10.9285C8.1001 10.4315 8.50304 10.0285 9.0001 10.0285Z" fill="white"/>
</svg>
