<svg width="29" height="16" viewBox="0 0 29 16" fill="none" xmlns="http://www.w3.org/2000/svg">
<path d="M0 1C0 0.447715 0.447715 0 1 0H27V16H0.999999C0.447715 16 0 15.5523 0 15V1Z" fill="white"/>
<path d="M12.0276 3.24V5.93H13.2776V7.1H12.0276V10.39H10.7476V3.24H12.0276ZM9.30758 7.29L8.08758 7.14C8.22758 6.24 8.32758 5.38 8.33758 4.76H4.76758V3.68H9.58758V4.15C9.58758 5.24 9.47758 6.33 9.30758 7.29ZM10.0676 7.74L10.2076 8.87C8.79758 9.07 7.01758 9.18 5.69758 9.18H4.27758L4.20758 8.01H5.81758H5.90758V6H7.18758V7.97C8.10758 7.93 9.14758 7.85 10.0676 7.74ZM5.78758 9.95H7.05758V11.42H12.4676V12.58H5.78758V9.95ZM21.42 5.16H22.77V6.32H21.42V8.48H20.14V3.24H21.42V5.16ZM19.29 6.96L19.43 8.01C18.4 8.2 17.19 8.31 15.91 8.31H14.01V5.41H17.24V4.73H14.01V3.64H18.48V6.48H15.25V7.21H16.13C17.11 7.21 18.22 7.12 19.29 6.96ZM21.42 12.58H15.27V8.99H21.42V12.58ZM20.14 10.1H16.55V11.44H20.14V10.1Z" fill="#572DFF"/>
<path fill-rule="evenodd" clip-rule="evenodd" d="M29 0H27V16H29V15.1429C28.1716 15.1429 27.5 14.5672 27.5 13.8571C27.5 13.1471 28.1716 12.5714 29 12.5714V11.2857C28.1716 11.2857 27.5 10.7101 27.5 10C27.5 9.28992 28.1716 8.71429 29 8.71429V7.42857C28.1716 7.42857 27.5 6.85294 27.5 6.14286C27.5 5.43278 28.1716 4.85714 29 4.85714V3.57143C28.1716 3.57143 27.5 2.99579 27.5 2.28571C27.5 1.57563 28.1716 1 29 1V0Z" fill="white"/>
</svg>
