<svg width="16" height="16" viewBox="0 0 16 16" fill="none" xmlns="http://www.w3.org/2000/svg">
<g clip-path="url(#clip0_292_12605)">
<path d="M5.83333 13L5.83333 11.5714L5.83333 13ZM5.83333 8.71429L5.83333 7.28571L5.83333 8.71429ZM5.83333 4.42857L5.83333 3L5.83333 4.42857ZM13.0556 13C13.4386 13 13.806 12.8495 14.0769 12.5816C14.3478 12.3137 14.5 11.9503 14.5 11.5714L14.5 9.42857C14.1169 9.42857 13.7495 9.27806 13.4786 9.01015C13.2077 8.74224 13.0556 8.37888 13.0556 8C13.0556 7.62112 13.2077 7.25776 13.4786 6.98985C13.7495 6.72194 14.1169 6.57143 14.5 6.57143L14.5 4.42857C14.5 4.04969 14.3478 3.68633 14.0769 3.41842C13.806 3.15051 13.4386 3 13.0556 3L2.94445 3C2.56136 3 2.19396 3.15051 1.92307 3.41842C1.65218 3.68633 1.5 4.04969 1.5 4.42857L1.5 6.57143C1.88309 6.57143 2.25049 6.72194 2.52138 6.98985C2.79226 7.25776 2.94445 7.62112 2.94445 8C2.94445 8.37888 2.79226 8.74224 2.52138 9.01015C2.25049 9.27806 1.88309 9.42857 1.5 9.42857L1.5 11.5714C1.5 11.9503 1.65218 12.3137 1.92307 12.5816C2.19395 12.8495 2.56135 13 2.94444 13L13.0556 13Z" fill="#F9FAFD" stroke="#9898A3" stroke-linecap="round" stroke-linejoin="round"/>
</g>
<defs>
<clipPath id="clip0_292_12605">
<rect width="16" height="16" fill="white"/>
</clipPath>
</defs>
</svg>
