<svg width="24" height="24" viewBox="0 0 24 24" fill="none" xmlns="http://www.w3.org/2000/svg">
<path d="M20.1542 6.68799C21.0506 6.15208 21.7214 5.30823 22.0412 4.31399C21.1988 4.81379 20.2772 5.16587 19.3162 5.35499C17.9838 3.94552 15.8727 3.60251 14.1626 4.51764C12.4525 5.43277 11.5667 7.37948 12.0002 9.26999C8.5498 9.09676 5.33516 7.4669 3.1562 4.78599C2.01904 6.74741 2.60015 9.25477 4.4842 10.516C3.8029 10.4941 3.13672 10.3096 2.5412 9.97799C2.5412 9.99599 2.5412 10.014 2.5412 10.032C2.54159 12.0751 3.98157 13.8351 5.9842 14.24C5.35226 14.4119 4.6894 14.4372 4.0462 14.314C4.6094 16.0613 6.21975 17.2583 8.0552 17.294C6.53503 18.4871 4.65767 19.1342 2.7252 19.131C2.38267 19.1315 2.04041 19.1118 1.7002 19.072C3.66259 20.333 5.94656 21.0023 8.2792 21C11.5244 21.0223 14.6432 19.7429 16.9379 17.448C19.2326 15.1531 20.5118 12.0342 20.4892 8.78899C20.4892 8.60299 20.4849 8.41799 20.4762 8.23399C21.3166 7.62659 22.042 6.87414 22.6182 6.01199C21.8352 6.35905 21.0047 6.58691 20.1542 6.68799Z" fill="white"/>
</svg>
