<svg width="20" height="20" viewBox="0 0 20 20" fill="none" xmlns="http://www.w3.org/2000/svg">
<path fill-rule="evenodd" clip-rule="evenodd" d="M6.25401 15.36H8.78801L9.92201 10.236C10.0119 9.78651 10.0898 9.35706 10.1664 8.93478L10.1664 8.93478C10.2329 8.56792 10.2984 8.20647 10.37 7.842H10.426C10.552 8.62597 10.706 9.39595 10.874 10.2359L10.874 10.236L12.036 15.36H14.612L15.5377 10.36H18V8.36H15.908L16.53 5H14.556L13.744 10.054C13.59 11.132 13.436 12.238 13.282 13.358H13.212C13.1315 12.9554 13.0528 12.5528 12.9746 12.1528L12.9745 12.1526C12.8352 11.4399 12.6975 10.7355 12.554 10.054L11.35 5H9.58601L8.38201 10.054C8.15801 11.132 7.93401 12.238 7.72401 13.358H7.66801C7.59102 12.798 7.51052 12.252 7.43002 11.706C7.34952 11.16 7.26901 10.614 7.19201 10.054L6.36601 5H4.25201L4.90131 8.36H3V10.36H5.2878L6.25401 15.36Z" fill="#676975"/>
</svg>
