<svg width="24" height="24" viewBox="0 0 24 24" fill="none" xmlns="http://www.w3.org/2000/svg">
<path fill-rule="evenodd" clip-rule="evenodd" d="M11.986 19.012H12.006C12.262 19.012 18.295 19.008 19.815 18.605C20.6752 18.3726 21.3477 17.7016 21.582 16.842C21.8671 15.2543 22.007 13.644 22 12.031C22.0197 10.4113 21.8834 8.79354 21.593 7.2C21.3605 6.3411 20.6898 5.67001 19.831 5.437C18.282 5.012 12.063 5 12 5H11.979C11.723 5 5.691 5 4.169 5.4C3.30983 5.64595 2.64071 6.32151 2.403 7.183C2.11831 8.77271 1.97873 10.385 1.986 12C1.97469 13.6123 2.11058 15.2224 2.392 16.81C2.62335 17.6707 3.29543 18.3432 4.156 18.575C5.721 19 11.924 19.012 11.986 19.012ZM10.006 9.005L10.001 15.005L15.213 12.005L10.006 9.005Z" fill="white"/>
</svg>
